<svg xmlns="http://www.w3.org/2000/svg" width="722" height="59" viewBox="0 0 722 59" fill="none"><path d="M580 21L573 7L587 7L580 21Z" fill="url(#paint0_linear_123_547)"></path><path d="M573 18.0185C573 17.2624 573.613 16.6494 574.369 16.6494H585.322C586.078 16.6494 586.691 17.2624 586.691 18.0185V22.1257H573V18.0185Z" fill="#1E1E1E"></path><path d="M586.691 23.4948C586.691 25.763 584.852 27.602 582.584 27.602V30.3402C582.962 30.3402 583.268 30.6467 583.268 31.0247V32.3938C583.268 32.7718 582.962 33.0783 582.584 33.0783V39.9237C582.584 40.6798 581.971 41.2928 581.214 41.2928H578.476C577.72 41.2928 577.107 40.6798 577.107 39.9237V27.602C574.839 27.602 573 25.763 573 23.4948H586.691Z" fill="#1E1E1E"></path><path d="M577.107 44.031C577.107 43.2749 577.72 42.6619 578.476 42.6619H581.214C581.971 42.6619 582.584 43.2749 582.584 44.031C582.584 44.787 581.971 45.4 581.214 45.4H578.476C577.72 45.4 577.107 44.787 577.107 44.031Z" fill="#1E1E1E"></path><path d="M0 44.5V2.5H15.72C19.12 2.5 21.94 3.08 24.18 4.24C26.42 5.4 28.08 6.96 29.16 8.92C30.24 10.88 30.78 13.12 30.78 15.64C30.78 17.96 30.26 20.1 29.22 22.06C28.18 24.02 26.54 25.62 24.3 26.86C22.06 28.06 19.2 28.66 15.72 28.66H8.1V44.5H0ZM8.1 22.12H15.24C17.84 22.12 19.7 21.54 20.82 20.38C21.98 19.18 22.56 17.6 22.56 15.64C22.56 13.56 21.98 11.96 20.82 10.84C19.7 9.68 17.84 9.1 15.24 9.1H8.1V22.12Z" fill="#1E1E1E"></path><path d="M46.0833 45.22C43.5633 45.22 41.4833 44.82 39.8433 44.02C38.2033 43.18 36.9833 42.08 36.1833 40.72C35.4233 39.32 35.0433 37.78 35.0433 36.1C35.0433 34.26 35.5033 32.64 36.4233 31.24C37.3833 29.84 38.8033 28.74 40.6833 27.94C42.6033 27.14 45.0033 26.74 47.8833 26.74H55.3833C55.3833 25.26 55.1833 24.04 54.7833 23.08C54.3833 22.08 53.7633 21.34 52.9233 20.86C52.0833 20.38 50.9633 20.14 49.5633 20.14C48.0433 20.14 46.7433 20.48 45.6633 21.16C44.6233 21.8 43.9833 22.8 43.7433 24.16H35.8833C36.0833 22 36.7833 20.14 37.9833 18.58C39.2233 16.98 40.8433 15.74 42.8433 14.86C44.8833 13.98 47.1433 13.54 49.6233 13.54C52.4633 13.54 54.9233 14.02 57.0033 14.98C59.0833 15.94 60.6833 17.32 61.8033 19.12C62.9233 20.92 63.4833 23.14 63.4833 25.78V44.5H56.6433L55.7433 39.88C55.3033 40.68 54.7833 41.4 54.1833 42.04C53.5833 42.68 52.8833 43.24 52.0833 43.72C51.2833 44.2 50.3833 44.56 49.3833 44.8C48.3833 45.08 47.2833 45.22 46.0833 45.22ZM48.0033 38.98C49.0433 38.98 49.9633 38.8 50.7633 38.44C51.6033 38.04 52.3233 37.52 52.9233 36.88C53.5233 36.2 53.9833 35.44 54.3033 34.6C54.6633 33.72 54.9033 32.78 55.0233 31.78V31.72H48.8433C47.6033 31.72 46.5833 31.88 45.7833 32.2C45.0233 32.48 44.4633 32.9 44.1033 33.46C43.7433 34.02 43.5633 34.66 43.5633 35.38C43.5633 36.18 43.7433 36.84 44.1033 37.36C44.4633 37.88 44.9833 38.28 45.6633 38.56C46.3433 38.84 47.1233 38.98 48.0033 38.98Z" fill="#1E1E1E"></path><path d="M72.2395 44.5V14.26H79.4395L80.2195 19.84C80.9395 18.52 81.8395 17.4 82.9195 16.48C84.0395 15.56 85.2995 14.84 86.6995 14.32C88.1395 13.8 89.7195 13.54 91.4395 13.54V22.12H88.6795C87.4795 22.12 86.3595 22.26 85.3195 22.54C84.3195 22.82 83.4395 23.28 82.6795 23.92C81.9195 24.52 81.3395 25.36 80.9395 26.44C80.5395 27.52 80.3395 28.88 80.3395 30.52V44.5H72.2395Z" fill="#1E1E1E"></path><path d="M108.19 45.22C105.67 45.22 103.59 44.82 101.95 44.02C100.31 43.18 99.0903 42.08 98.2903 40.72C97.5303 39.32 97.1503 37.78 97.1503 36.1C97.1503 34.26 97.6103 32.64 98.5303 31.24C99.4903 29.84 100.91 28.74 102.79 27.94C104.71 27.14 107.11 26.74 109.99 26.74H117.49C117.49 25.26 117.29 24.04 116.89 23.08C116.49 22.08 115.87 21.34 115.03 20.86C114.19 20.38 113.07 20.14 111.67 20.14C110.15 20.14 108.85 20.48 107.77 21.16C106.73 21.8 106.09 22.8 105.85 24.16H97.9903C98.1903 22 98.8903 20.14 100.09 18.58C101.33 16.98 102.95 15.74 104.95 14.86C106.99 13.98 109.25 13.54 111.73 13.54C114.57 13.54 117.03 14.02 119.11 14.98C121.19 15.94 122.79 17.32 123.91 19.12C125.03 20.92 125.59 23.14 125.59 25.78V44.5H118.75L117.85 39.88C117.41 40.68 116.89 41.4 116.29 42.04C115.69 42.68 114.99 43.24 114.19 43.72C113.39 44.2 112.49 44.56 111.49 44.8C110.49 45.08 109.39 45.22 108.19 45.22ZM110.11 38.98C111.15 38.98 112.07 38.8 112.87 38.44C113.71 38.04 114.43 37.52 115.03 36.88C115.63 36.2 116.09 35.44 116.41 34.6C116.77 33.72 117.01 32.78 117.13 31.78V31.72H110.95C109.71 31.72 108.69 31.88 107.89 32.2C107.13 32.48 106.57 32.9 106.21 33.46C105.85 34.02 105.67 34.66 105.67 35.38C105.67 36.18 105.85 36.84 106.21 37.36C106.57 37.88 107.09 38.28 107.77 38.56C108.45 38.84 109.23 38.98 110.11 38.98Z" fill="#1E1E1E"></path><path d="M259.517 45.22C256.477 45.22 253.777 44.58 251.417 43.3C249.097 41.98 247.277 40.16 245.957 37.84C244.677 35.48 244.037 32.76 244.037 29.68C244.037 26.52 244.677 23.74 245.957 21.34C247.277 18.9 249.097 17 251.417 15.64C253.737 14.24 256.437 13.54 259.517 13.54C262.517 13.54 265.137 14.2 267.377 15.52C269.617 16.84 271.357 18.62 272.597 20.86C273.837 23.1 274.457 25.64 274.457 28.48C274.457 28.88 274.457 29.34 274.457 29.86C274.457 30.34 274.417 30.84 274.337 31.36H249.797V26.44H266.297C266.177 24.48 265.477 22.94 264.197 21.82C262.957 20.7 261.397 20.14 259.517 20.14C258.157 20.14 256.897 20.46 255.737 21.1C254.577 21.7 253.657 22.64 252.977 23.92C252.337 25.2 252.017 26.82 252.017 28.78V30.52C252.017 32.16 252.317 33.6 252.917 34.84C253.557 36.04 254.437 36.98 255.557 37.66C256.677 38.3 257.977 38.62 259.457 38.62C260.937 38.62 262.157 38.3 263.117 37.66C264.117 37.02 264.857 36.2 265.337 35.2H273.617C273.057 37.08 272.117 38.78 270.797 40.3C269.477 41.82 267.857 43.02 265.937 43.9C264.017 44.78 261.877 45.22 259.517 45.22Z" fill="#1E1E1E"></path><path d="M282.291 44.5V14.26H289.431L290.031 19.18C290.951 17.5 292.251 16.14 293.931 15.1C295.651 14.06 297.691 13.54 300.051 13.54C302.571 13.54 304.691 14.06 306.411 15.1C308.131 16.14 309.431 17.66 310.311 19.66C311.231 21.66 311.691 24.12 311.691 27.04V44.5H303.651V27.82C303.651 25.42 303.131 23.58 302.091 22.3C301.091 21.02 299.531 20.38 297.411 20.38C296.051 20.38 294.831 20.7 293.751 21.34C292.711 21.98 291.891 22.9 291.291 24.1C290.691 25.26 290.391 26.68 290.391 28.36V44.5H282.291Z" fill="#1E1E1E"></path><path d="M347.679 44.5V14.26H354.879L355.659 19.84C356.379 18.52 357.279 17.4 358.359 16.48C359.479 15.56 360.739 14.84 362.139 14.32C363.579 13.8 365.159 13.54 366.879 13.54V22.12H364.119C362.919 22.12 361.799 22.26 360.759 22.54C359.759 22.82 358.879 23.28 358.119 23.92C357.359 24.52 356.779 25.36 356.379 26.44C355.979 27.52 355.779 28.88 355.779 30.52V44.5H347.679Z" fill="#1E1E1E"></path><path d="M387.481 45.22C384.441 45.22 381.741 44.58 379.381 43.3C377.061 41.98 375.241 40.16 373.921 37.84C372.641 35.48 372.001 32.76 372.001 29.68C372.001 26.52 372.641 23.74 373.921 21.34C375.241 18.9 377.061 17 379.381 15.64C381.701 14.24 384.401 13.54 387.481 13.54C390.481 13.54 393.101 14.2 395.341 15.52C397.581 16.84 399.321 18.62 400.561 20.86C401.801 23.1 402.421 25.64 402.421 28.48C402.421 28.88 402.421 29.34 402.421 29.86C402.421 30.34 402.381 30.84 402.301 31.36H377.761V26.44H394.261C394.141 24.48 393.441 22.94 392.161 21.82C390.921 20.7 389.361 20.14 387.481 20.14C386.121 20.14 384.861 20.46 383.701 21.1C382.541 21.7 381.621 22.64 380.941 23.92C380.301 25.2 379.981 26.82 379.981 28.78V30.52C379.981 32.16 380.281 33.6 380.881 34.84C381.521 36.04 382.401 36.98 383.521 37.66C384.641 38.3 385.941 38.62 387.421 38.62C388.901 38.62 390.121 38.3 391.081 37.66C392.081 37.02 392.821 36.2 393.301 35.2H401.581C401.021 37.08 400.081 38.78 398.761 40.3C397.441 41.82 395.821 43.02 393.901 43.9C391.981 44.78 389.841 45.22 387.481 45.22Z" fill="#1E1E1E"></path><path d="M425.576 44.5V1.3H433.676V18.76C434.676 17.16 435.996 15.9 437.636 14.98C439.316 14.02 441.256 13.54 443.456 13.54C445.976 13.54 448.096 14.08 449.816 15.16C451.536 16.2 452.836 17.72 453.716 19.72C454.596 21.72 455.036 24.2 455.036 27.16V44.5H446.996V27.88C446.996 25.48 446.496 23.64 445.496 22.36C444.496 21.04 442.916 20.38 440.756 20.38C439.436 20.38 438.236 20.7 437.156 21.34C436.076 21.98 435.216 22.92 434.576 24.16C433.976 25.36 433.676 26.8 433.676 28.48V44.5H425.576Z" fill="#1E1E1E"></path><path d="M464.046 44.5V14.26H472.146V44.5H464.046ZM468.126 10.12C466.686 10.12 465.486 9.7 464.526 8.86C463.606 7.98 463.146 6.88 463.146 5.56C463.146 4.24 463.606 3.16 464.526 2.32C465.486 1.44 466.686 1 468.126 1C469.606 1 470.806 1.44 471.726 2.32C472.686 3.16 473.166 4.24 473.166 5.56C473.166 6.88 472.686 7.98 471.726 8.86C470.806 9.7 469.606 10.12 468.126 10.12Z" fill="#1E1E1E"></path><path d="M494.551 58.42C491.671 58.42 489.151 58.06 486.991 57.34C484.831 56.66 483.151 55.6 481.951 54.16C480.791 52.76 480.211 51.02 480.211 48.94C480.211 47.54 480.571 46.22 481.291 44.98C482.011 43.74 483.051 42.62 484.411 41.62C485.811 40.58 487.551 39.7 489.631 38.98L492.691 42.94C490.851 43.54 489.511 44.28 488.671 45.16C487.871 46.08 487.471 47.06 487.471 48.1C487.471 49.02 487.771 49.8 488.371 50.44C489.011 51.08 489.851 51.54 490.891 51.82C491.971 52.14 493.171 52.3 494.491 52.3C495.771 52.3 496.871 52.14 497.791 51.82C498.751 51.5 499.491 51.02 500.011 50.38C500.571 49.78 500.851 49.06 500.851 48.22C500.851 47.14 500.471 46.26 499.711 45.58C498.951 44.9 497.431 44.48 495.151 44.32C493.111 44.16 491.291 43.94 489.691 43.66C488.131 43.34 486.751 42.98 485.551 42.58C484.351 42.14 483.331 41.66 482.491 41.14C481.691 40.62 481.031 40.1 480.511 39.58V38.2L486.931 31.3L492.751 33.16L485.191 40.6L487.471 36.64C487.911 36.88 488.331 37.12 488.731 37.36C489.171 37.56 489.711 37.76 490.351 37.96C490.991 38.12 491.831 38.28 492.871 38.44C493.911 38.6 495.231 38.74 496.831 38.86C499.471 39.1 501.631 39.6 503.311 40.36C505.031 41.12 506.291 42.14 507.091 43.42C507.891 44.66 508.291 46.2 508.291 48.04C508.291 49.84 507.791 51.52 506.791 53.08C505.831 54.68 504.331 55.96 502.291 56.92C500.251 57.92 497.671 58.42 494.551 58.42ZM494.551 35.56C492.031 35.56 489.851 35.08 488.011 34.12C486.211 33.12 484.811 31.8 483.811 30.16C482.851 28.48 482.371 26.62 482.371 24.58C482.371 22.54 482.851 20.7 483.811 19.06C484.811 17.38 486.211 16.04 488.011 15.04C489.851 14.04 492.031 13.54 494.551 13.54C497.111 13.54 499.291 14.04 501.091 15.04C502.931 16.04 504.331 17.38 505.291 19.06C506.251 20.7 506.731 22.54 506.731 24.58C506.731 26.62 506.251 28.48 505.291 30.16C504.331 31.8 502.931 33.12 501.091 34.12C499.291 35.08 497.111 35.56 494.551 35.56ZM494.551 29.38C496.111 29.38 497.371 28.98 498.331 28.18C499.291 27.38 499.771 26.2 499.771 24.64C499.771 23.08 499.291 21.9 498.331 21.1C497.371 20.26 496.111 19.84 494.551 19.84C493.031 19.84 491.771 20.26 490.771 21.1C489.811 21.9 489.331 23.08 489.331 24.64C489.331 26.2 489.811 27.38 490.771 28.18C491.771 28.98 493.031 29.38 494.551 29.38ZM499.591 20.02L498.271 14.26H510.691V19.06L499.591 20.02Z" fill="#1E1E1E"></path><path d="M518.473 44.5V1.3H526.573V18.76C527.573 17.16 528.893 15.9 530.533 14.98C532.213 14.02 534.153 13.54 536.353 13.54C538.873 13.54 540.993 14.08 542.713 15.16C544.433 16.2 545.733 17.72 546.613 19.72C547.493 21.72 547.933 24.2 547.933 27.16V44.5H539.893V27.88C539.893 25.48 539.393 23.64 538.393 22.36C537.393 21.04 535.813 20.38 533.653 20.38C532.333 20.38 531.133 20.7 530.053 21.34C528.973 21.98 528.113 22.92 527.473 24.16C526.873 25.36 526.573 26.8 526.573 28.48V44.5H518.473Z" fill="#1E1E1E"></path><path d="M556.763 44.5V1.3H564.863V44.5H556.763Z" fill="#1E1E1E"></path><path d="M607.648 58.42C604.768 58.42 602.248 58.06 600.088 57.34C597.928 56.66 596.248 55.6 595.048 54.16C593.888 52.76 593.308 51.02 593.308 48.94C593.308 47.54 593.668 46.22 594.388 44.98C595.108 43.74 596.148 42.62 597.508 41.62C598.908 40.58 600.648 39.7 602.728 38.98L605.788 42.94C603.948 43.54 602.608 44.28 601.768 45.16C600.968 46.08 600.568 47.06 600.568 48.1C600.568 49.02 600.868 49.8 601.468 50.44C602.108 51.08 602.948 51.54 603.988 51.82C605.068 52.14 606.268 52.3 607.588 52.3C608.868 52.3 609.968 52.14 610.888 51.82C611.848 51.5 612.588 51.02 613.108 50.38C613.668 49.78 613.948 49.06 613.948 48.22C613.948 47.14 613.568 46.26 612.808 45.58C612.048 44.9 610.528 44.48 608.248 44.32C606.208 44.16 604.388 43.94 602.788 43.66C601.228 43.34 599.848 42.98 598.648 42.58C597.448 42.14 596.428 41.66 595.588 41.14C594.788 40.62 594.128 40.1 593.608 39.58V38.2L600.028 31.3L605.848 33.16L598.288 40.6L600.568 36.64C601.008 36.88 601.428 37.12 601.828 37.36C602.268 37.56 602.808 37.76 603.448 37.96C604.088 38.12 604.928 38.28 605.968 38.44C607.008 38.6 608.328 38.74 609.928 38.86C612.568 39.1 614.728 39.6 616.408 40.36C618.128 41.12 619.388 42.14 620.188 43.42C620.988 44.66 621.388 46.2 621.388 48.04C621.388 49.84 620.888 51.52 619.888 53.08C618.928 54.68 617.428 55.96 615.388 56.92C613.348 57.92 610.768 58.42 607.648 58.42ZM607.648 35.56C605.128 35.56 602.948 35.08 601.108 34.12C599.308 33.12 597.908 31.8 596.908 30.16C595.948 28.48 595.468 26.62 595.468 24.58C595.468 22.54 595.948 20.7 596.908 19.06C597.908 17.38 599.308 16.04 601.108 15.04C602.948 14.04 605.128 13.54 607.648 13.54C610.208 13.54 612.388 14.04 614.188 15.04C616.028 16.04 617.428 17.38 618.388 19.06C619.348 20.7 619.828 22.54 619.828 24.58C619.828 26.62 619.348 28.48 618.388 30.16C617.428 31.8 616.028 33.12 614.188 34.12C612.388 35.08 610.208 35.56 607.648 35.56ZM607.648 29.38C609.208 29.38 610.468 28.98 611.428 28.18C612.388 27.38 612.868 26.2 612.868 24.64C612.868 23.08 612.388 21.9 611.428 21.1C610.468 20.26 609.208 19.84 607.648 19.84C606.128 19.84 604.868 20.26 603.868 21.1C602.908 21.9 602.428 23.08 602.428 24.64C602.428 26.2 602.908 27.38 603.868 28.18C604.868 28.98 606.128 29.38 607.648 29.38ZM612.688 20.02L611.368 14.26H623.788V19.06L612.688 20.02Z" fill="#1E1E1E"></path><path d="M631.57 44.5V1.3H639.67V18.76C640.67 17.16 641.99 15.9 643.63 14.98C645.31 14.02 647.25 13.54 649.45 13.54C651.97 13.54 654.09 14.08 655.81 15.16C657.53 16.2 658.83 17.72 659.71 19.72C660.59 21.72 661.03 24.2 661.03 27.16V44.5H652.99V27.88C652.99 25.48 652.49 23.64 651.49 22.36C650.49 21.04 648.91 20.38 646.75 20.38C645.43 20.38 644.23 20.7 643.15 21.34C642.07 21.98 641.21 22.92 640.57 24.16C639.97 25.36 639.67 26.8 639.67 28.48V44.5H631.57Z" fill="#1E1E1E"></path><path d="M334.142 44.5C332.022 44.5 330.162 44.18 328.562 43.54C327.002 42.86 325.782 41.76 324.902 40.24C324.022 38.68 323.582 36.56 323.582 33.88V21.04H318.422V14.26H323.582H331.682H339.662V21.04H331.682V34C331.682 35.36 331.982 36.3 332.582 36.82C333.182 37.34 334.202 37.6 335.642 37.6H339.602V44.5H334.142Z" fill="#1E1E1E"></path><path d="M576.38 8.86C577.34 9.7 578.54 10.12 579.98 10.12C581.46 10.12 582.66 9.7 583.58 8.86C584.54 7.98 585.02 6.88 585.02 5.56C585.02 4.24 584.54 3.16 583.58 2.32C582.66 1.44 581.46 1 579.98 1C578.54 1 577.34 1.44 576.38 2.32C575.46 3.16 575 4.24 575 5.56C575 6.88 575.46 7.98 576.38 8.86Z" fill="#1E1E1E"></path><path d="M683.48 44.5C681.36 44.5 679.5 44.18 677.9 43.54C676.34 42.86 675.12 41.76 674.24 40.24C673.36 38.68 672.92 36.56 672.92 33.88V21.04H667.76V14.26H672.92V6C672.92 5.44771 673.368 5 673.92 5H680.02C680.572 5 681.02 5.44772 681.02 6V14.26H689V21.04H681.02V34C681.02 35.36 681.32 36.3 681.92 36.82C682.52 37.34 683.54 37.6 684.98 37.6H688.94V44.5H683.48Z" fill="#1E1E1E"></path><path d="M708.98 45.22C706.22 45.22 703.82 44.78 701.78 43.9C699.74 43.02 698.14 41.8 696.98 40.24C695.82 38.68 695.16 36.92 695 34.96H703.04C703.24 35.72 703.58 36.42 704.06 37.06C704.54 37.66 705.18 38.14 705.98 38.5C706.78 38.86 707.74 39.04 708.86 39.04C709.94 39.04 710.82 38.9 711.5 38.62C712.18 38.3 712.68 37.88 713 37.36C713.36 36.84 713.54 36.3 713.54 35.74C713.54 34.9 713.3 34.26 712.82 33.82C712.34 33.34 711.64 32.96 710.72 32.68C709.8 32.4 708.68 32.12 707.36 31.84C705.92 31.56 704.5 31.22 703.1 30.82C701.74 30.38 700.52 29.84 699.44 29.2C698.36 28.56 697.5 27.74 696.86 26.74C696.22 25.74 695.9 24.5 695.9 23.02C695.9 21.22 696.38 19.62 697.34 18.22C698.3 16.78 699.7 15.64 701.54 14.8C703.38 13.96 705.6 13.54 708.2 13.54C711.84 13.54 714.72 14.36 716.84 16C718.96 17.64 720.22 19.9 720.62 22.78H713C712.76 21.86 712.22 21.14 711.38 20.62C710.58 20.06 709.5 19.78 708.14 19.78C706.7 19.78 705.6 20.04 704.84 20.56C704.08 21.08 703.7 21.76 703.7 22.6C703.7 23.16 703.94 23.66 704.42 24.1C704.94 24.54 705.66 24.92 706.58 25.24C707.5 25.52 708.62 25.8 709.94 26.08C712.26 26.56 714.3 27.12 716.06 27.76C717.82 28.36 719.2 29.24 720.2 30.4C721.2 31.52 721.7 33.16 721.7 35.32C721.7 37.24 721.18 38.96 720.14 40.48C719.1 41.96 717.62 43.12 715.7 43.96C713.82 44.8 711.58 45.22 708.98 45.22Z" fill="#1E1E1E"></path><path d="M216 44.3227C215.128 44.0189 214.295 43.638 213.5 43.18C211.14 41.82 209.3 39.96 207.98 37.6C206.66 35.24 206 32.54 206 29.5C206 26.38 206.66 23.64 207.98 21.28C209.3 18.88 211.14 17 213.5 15.64C215.86 14.24 218.56 13.54 221.6 13.54C225.48 13.54 228.74 14.56 231.38 16.6C234.02 18.64 235.7 21.44 236.42 25H227.84C227.48 23.6 226.72 22.5 225.56 21.7C224.44 20.9 223.1 20.5 221.54 20.5C220.14 20.5 218.88 20.86 217.76 21.58C216.68 22.26 215.82 23.28 215.18 24.64C214.58 25.96 214.28 27.54 214.28 29.38C214.28 30.78 214.46 32.04 214.82 33.16C215.18 34.24 215.68 35.18 216.32 35.98C216.96 36.74 217.72 37.32 218.6 37.72C219.52 38.12 220.5 38.32 221.54 38.32C222.58 38.32 223.52 38.14 224.36 37.78C225.24 37.42 225.98 36.92 226.58 36.28C227.18 35.6 227.6 34.78 227.84 33.82H236.42C235.7 37.3 234 40.08 231.32 42.16C230.024 43.1611 228.584 43.9166 227 44.4264V46H216V44.3227Z" fill="#1E1E1E"></path><path d="M216.75 47.5C216.336 47.5 216 47.8358 216 48.25C216 48.6642 216.336 49 216.75 49H226.25C226.664 49 227 48.6642 227 48.25C227 47.8358 226.664 47.5 226.25 47.5H216.75Z" fill="#1E1E1E"></path><path d="M216.133 51.4883C215.987 50.9556 216.448 50.5 217 50.5H226C226.552 50.5 227.013 50.9556 226.867 51.4883C226.316 53.4982 224.123 55 221.5 55C218.877 55 216.684 53.4982 216.133 51.4883Z" fill="#1E1E1E"></path><path d="M134.347 14.26V44.5H142.447V28.4199C142.447 26.74 142.707 25.3 143.227 24.1001C143.787 22.9001 144.547 21.98 145.507 21.3401C146.507 20.7 147.627 20.3801 148.867 20.3801C150.867 20.3801 152.273 20.5638 153.5 22C154.67 23.3695 154.887 24.7415 154.556 26.7405L152.033 35.239C151.995 35.3872 151.99 35.543 152.017 35.6938C152.045 35.8447 152.105 35.9866 152.193 36.1089C152.282 36.2312 152.396 36.3301 152.527 36.3977C152.657 36.4653 152.801 36.5 152.946 36.4988H156.589L154.885 43.2375C154.864 43.3184 154.853 43.4011 154.852 43.4839C154.85 43.6235 154.875 43.7629 154.927 43.8928C155.01 44.1001 155.157 44.2715 155.343 44.3789C155.53 44.4866 155.745 44.5242 155.954 44.4858C156.163 44.4475 156.353 44.3352 156.495 44.1672L166.754 32.1697C166.876 32.0276 166.957 31.8511 166.987 31.6611C167.017 31.4714 166.995 31.2766 166.923 31.0999C166.9 31.042 166.871 30.9868 166.838 30.9353C166.773 30.834 166.69 30.7456 166.594 30.6755C166.45 30.5696 166.28 30.5088 166.104 30.5H161.794L163 26C163.8 23 164.967 21.98 165.967 21.3401C166.967 20.7 168.107 20.3801 169.387 20.3801C171.347 20.3801 172.787 21.02 173.707 22.3C174.667 23.5801 175.147 25.4199 175.147 27.8201V44.5H183.187V27.1001C183.187 24.1799 182.727 21.72 181.807 19.72C180.927 17.72 179.607 16.2 177.847 15.1602C176.087 14.0801 173.887 13.54 171.247 13.54C169.127 13.54 167.167 14 165.367 14.9199C163.567 15.8401 162.107 17.1201 160.987 18.76C160.387 17.6001 159.607 16.6401 158.647 15.8801C157.727 15.1201 156.667 14.54 155.467 14.1401C154.267 13.74 152.907 13.54 151.387 13.54C149.347 13.54 147.527 13.98 145.927 14.8601C144.367 15.7 143.107 16.8401 142.147 18.28L141.487 14.26H134.347Z" fill="#1E1E1E"></path><path d="M325.413 3.52C325.413 2.05137 326.493 1 327.662 1C328.83 1 329.911 2.05137 329.911 3.52V9.5H325.413V3.52Z" fill="#1E1E1E" stroke="#1E1E1E" stroke-width="2"></path><rect x="323.6" y="12" width="8.12" height="4" fill="#1E1E1E"></rect><path d="M325.225 10.12C325.225 9.87704 325.407 9.68005 325.631 9.68005C325.855 9.68005 326.037 9.87704 326.037 10.12V10.56V12.76C326.037 13.0031 325.855 13.2 325.631 13.2C325.407 13.2 325.225 13.0031 325.225 12.76V10.56V10.12Z" fill="#1E1E1E"></path><path d="M329.286 10.12C329.286 9.87704 329.468 9.68005 329.692 9.68005C329.917 9.68005 330.099 9.87704 330.099 10.12V10.56V12.76C330.099 13.0031 329.917 13.2 329.692 13.2C329.468 13.2 329.286 13.0031 329.286 12.76V10.56V10.12Z" fill="#1E1E1E"></path><path d="M330.099 10.56H330.911C331.359 10.56 331.723 10.1661 331.723 9.68005C331.723 9.19404 331.359 8.80005 330.911 8.80005H324.412C323.964 8.80005 323.6 9.19404 323.6 9.68005C323.6 10.1661 323.964 10.56 324.412 10.56H325.225V10.12C325.225 9.87704 325.407 9.68005 325.631 9.68005C325.855 9.68005 326.037 9.87704 326.037 10.12V10.56H329.286V10.12C329.286 9.87704 329.468 9.68005 329.692 9.68005C329.917 9.68005 330.099 9.87704 330.099 10.12V10.56Z" fill="#1E1E1E"></path><defs><linearGradient id="paint0_linear_123_547" x1="580.241" y1="1" x2="580.241" y2="25" gradientUnits="userSpaceOnUse"><stop stop-color="#1E1E1E" stop-opacity="0"></stop><stop offset="1" stop-color="#1E1E1E"></stop></linearGradient></defs></svg>