<svg xmlns="http://www.w3.org/2000/svg" width="329" height="60" viewBox="0 0 329 60" fill="none"><path d="M60.8495 47.72C58.4095 47.72 56.3095 47.22 54.5495 46.22C52.8295 45.18 51.5095 43.66 50.5895 41.66C49.6695 39.66 49.2095 37.2 49.2095 34.28V16.76H57.6095V33.44C57.6095 35.8 58.0895 37.6 59.0495 38.84C60.0495 40.04 61.5895 40.64 63.6695 40.64C64.9895 40.64 66.1695 40.34 67.2095 39.74C68.2495 39.14 69.0495 38.28 69.6095 37.16C70.2095 36 70.5095 34.58 70.5095 32.9V16.76H78.9095V47H71.5295L70.8695 42.14C69.9895 43.82 68.6895 45.18 66.9695 46.22C65.2895 47.22 63.2495 47.72 60.8495 47.72Z" fill="#1E1E1E"></path><path d="M88.0351 47V16.76H95.4751L96.2551 22.34C97.0151 21.02 97.9351 19.9 99.0151 18.98C100.095 18.06 101.355 17.34 102.795 16.82C104.235 16.3 105.795 16.04 107.475 16.04V24.92H104.655C103.455 24.92 102.335 25.06 101.295 25.34C100.295 25.62 99.4151 26.08 98.6551 26.72C97.9351 27.32 97.3751 28.16 96.9751 29.24C96.6151 30.28 96.4351 31.6 96.4351 33.2V47H88.0351Z" fill="#1E1E1E"></path><path d="M143.746 47.72C140.706 47.72 138.006 47.08 135.646 45.8C133.326 44.48 131.506 42.66 130.186 40.34C128.866 37.98 128.206 35.26 128.206 32.18C128.206 29.06 128.846 26.3 130.126 23.9C131.446 21.46 133.266 19.54 135.586 18.14C137.946 16.74 140.686 16.04 143.806 16.04C146.806 16.04 149.426 16.7 151.666 18.02C153.946 19.34 155.706 21.12 156.946 23.36C158.226 25.6 158.866 28.18 158.866 31.1C158.866 31.5 158.846 31.94 158.806 32.42C158.806 32.9 158.766 33.42 158.686 33.98H134.206V28.88H150.346C150.226 27.04 149.546 25.58 148.306 24.5C147.106 23.38 145.606 22.82 143.806 22.82C142.446 22.82 141.206 23.14 140.086 23.78C138.966 24.42 138.086 25.36 137.446 26.6C136.806 27.84 136.486 29.42 136.486 31.34V33.08C136.486 34.64 136.786 36.02 137.386 37.22C137.986 38.38 138.826 39.28 139.906 39.92C140.986 40.56 142.246 40.88 143.686 40.88C145.126 40.88 146.306 40.58 147.226 39.98C148.186 39.38 148.906 38.6 149.386 37.64H157.966C157.406 39.52 156.446 41.22 155.086 42.74C153.766 44.26 152.146 45.48 150.226 46.4C148.306 47.28 146.146 47.72 143.746 47.72Z" fill="#1E1E1E"></path><path d="M173.502 47L162.522 16.76H171.342L178.662 39.08L186.042 16.76H194.742L183.762 47H173.502Z" fill="#1E1E1E"></path><path d="M214.056 47.72C211.016 47.72 208.316 47.08 205.956 45.8C203.636 44.48 201.816 42.66 200.496 40.34C199.176 37.98 198.516 35.26 198.516 32.18C198.516 29.06 199.156 26.3 200.436 23.9C201.756 21.46 203.576 19.54 205.896 18.14C208.256 16.74 210.996 16.04 214.116 16.04C217.116 16.04 219.736 16.7 221.976 18.02C224.256 19.34 226.016 21.12 227.256 23.36C228.536 25.6 229.176 28.18 229.176 31.1C229.176 31.5 229.156 31.94 229.116 32.42C229.116 32.9 229.076 33.42 228.996 33.98H204.516V28.88H220.656C220.536 27.04 219.856 25.58 218.616 24.5C217.416 23.38 215.916 22.82 214.116 22.82C212.756 22.82 211.516 23.14 210.396 23.78C209.276 24.42 208.396 25.36 207.756 26.6C207.116 27.84 206.796 29.42 206.796 31.34V33.08C206.796 34.64 207.096 36.02 207.696 37.22C208.296 38.38 209.136 39.28 210.216 39.92C211.296 40.56 212.556 40.88 213.996 40.88C215.436 40.88 216.616 40.58 217.536 39.98C218.496 39.38 219.216 38.6 219.696 37.64H228.276C227.716 39.52 226.756 41.22 225.396 42.74C224.076 44.26 222.456 45.48 220.536 46.4C218.616 47.28 216.456 47.72 214.056 47.72Z" fill="#1E1E1E"></path><path d="M237.004 47V16.76H244.384L244.984 21.68C245.904 20 247.204 18.64 248.884 17.6C250.604 16.56 252.664 16.04 255.064 16.04C257.544 16.04 259.644 16.58 261.364 17.66C263.084 18.7 264.384 20.22 265.264 22.22C266.184 24.22 266.644 26.68 266.644 29.6V47H258.304V30.38C258.304 28.06 257.804 26.28 256.804 25.04C255.844 23.76 254.304 23.12 252.184 23.12C250.904 23.12 249.744 23.44 248.704 24.08C247.664 24.68 246.844 25.56 246.244 26.72C245.684 27.84 245.404 29.22 245.404 30.86V47H237.004Z" fill="#1E1E1E"></path><path d="M315.281 47.72C312.481 47.72 310.061 47.28 308.021 46.4C305.981 45.48 304.381 44.26 303.221 42.74C302.061 41.18 301.381 39.42 301.181 37.46H309.581C309.741 38.18 310.041 38.84 310.481 39.44C310.961 40 311.581 40.46 312.341 40.82C313.141 41.18 314.081 41.36 315.161 41.36C316.201 41.36 317.041 41.22 317.681 40.94C318.361 40.62 318.861 40.22 319.181 39.74C319.541 39.26 319.721 38.74 319.721 38.18C319.721 37.38 319.481 36.76 319.001 36.32C318.521 35.88 317.821 35.52 316.901 35.24C315.981 34.96 314.881 34.7 313.601 34.46C312.161 34.14 310.741 33.78 309.341 33.38C307.981 32.98 306.741 32.46 305.621 31.82C304.541 31.14 303.681 30.3 303.041 29.3C302.401 28.3 302.081 27.06 302.081 25.58C302.081 23.78 302.561 22.16 303.521 20.72C304.521 19.28 305.941 18.14 307.781 17.3C309.661 16.46 311.901 16.04 314.501 16.04C318.181 16.04 321.081 16.88 323.201 18.56C325.361 20.2 326.641 22.44 327.041 25.28H319.121C318.921 24.4 318.421 23.72 317.621 23.24C316.821 22.76 315.761 22.52 314.441 22.52C313.081 22.52 312.021 22.76 311.261 23.24C310.541 23.72 310.181 24.36 310.181 25.16C310.181 25.68 310.421 26.16 310.901 26.6C311.381 27 312.061 27.36 312.941 27.68C313.861 27.96 314.981 28.24 316.301 28.52C318.661 29 320.721 29.56 322.481 30.2C324.241 30.8 325.621 31.68 326.621 32.84C327.621 33.96 328.121 35.6 328.121 37.76C328.161 39.68 327.641 41.4 326.561 42.92C325.521 44.44 324.041 45.62 322.121 46.46C320.201 47.3 317.921 47.72 315.281 47.72Z" fill="#1E1E1E"></path><path d="M17.1992 24.7484L19.1129 22.2627C20.3497 20.6559 20.9684 19.8525 21.5453 20.0223C22.1221 20.1921 22.1221 21.1773 22.1221 23.1483V23.3343C22.1221 24.0452 22.1221 24.4004 22.359 24.623L22.3715 24.635C22.6133 24.8528 22.9983 24.8528 23.7689 24.8528C25.1563 24.8528 25.8494 24.8528 26.0838 25.2566L26.0951 25.277C26.3163 25.6868 25.9144 26.2088 25.1113 27.251L23.1977 29.7373C21.9602 31.3441 21.3421 32.1475 20.7653 31.9777C20.1884 31.8079 20.1884 30.8227 20.1884 28.8517V28.6657C20.1884 27.9548 20.1884 27.5996 19.9516 27.377L19.9391 27.365C19.6972 27.1472 19.3122 27.1472 18.5416 27.1472C17.1542 27.1472 16.4611 27.1472 16.2274 26.7434L16.2155 26.723C15.9943 26.3132 16.3961 25.7918 17.1992 24.749" fill="#1E1E1E"></path><path d="M12.1553 52L30.1553 52" stroke="#1E1E1E" stroke-width="4" stroke-linecap="round"></path><path d="M16.1553 58H25.1553" stroke="#1E1E1E" stroke-width="4" stroke-linecap="round"></path><path fill-rule="evenodd" clip-rule="evenodd" d="M10.02 44.96C6.9 43.12 4.44 40.58 2.64 37.34C0.88 34.06 0 30.28 0 26C0 21.72 0.88 17.96 2.64 14.72C4.44 11.44 6.9 8.88003 10.02 7.04003C13.14 5.20003 16.74 4.28003 20.82 4.28003C24.94 4.28003 28.56 5.20003 31.68 7.04003C34.84 8.88003 37.28 11.44 39 14.72C40.76 17.96 41.64 21.72 41.64 26C41.64 30.28 40.76 34.06 39 37.34C37.28 40.58 34.84 43.12 31.68 44.96V48H10.08L10.02 44.96ZM27.3601 38.4201C25.5201 39.5801 23.3401 40.1601 20.8201 40.1601C18.3401 40.1601 16.1801 39.5801 14.3401 38.4201C12.5401 37.2601 11.1201 35.6401 10.0801 33.5601C9.08008 31.4401 8.58008 28.9201 8.58008 26.0001C8.58008 23.0801 9.08008 20.5801 10.0801 18.5001C11.1201 16.3801 12.5401 14.7401 14.3401 13.5801C16.1801 12.4201 18.3401 11.8401 20.8201 11.8401C23.3401 11.8401 25.5201 12.4201 27.3601 13.5801C29.2001 14.7401 30.6201 16.3801 31.6201 18.5001C32.6201 20.5801 33.1201 23.0801 33.1201 26.0001C33.1201 28.9201 32.6201 31.4401 31.6201 33.5601C30.6201 35.6401 29.2001 37.2601 27.3601 38.4201Z" fill="#1E1E1E"></path><path d="M289.27 47C287.11 47 285.21 46.66 283.57 45.98C281.97 45.3 280.73 44.18 279.85 42.62C278.97 41.06 278.53 38.94 278.53 36.26V23.78H273.31V16.76H278.53H281.155L284.155 16.76L294.79 16.76V23.78H286.93V36.32C286.93 37.64 287.21 38.56 287.77 39.08C288.37 39.6 289.37 39.86 290.77 39.86H294.73V47H289.27Z" fill="#1E1E1E"></path><path d="M278.155 6H287.155V10.5C287.155 12.9853 285.141 15 282.655 15C280.17 15 278.155 12.9853 278.155 10.5V6Z" fill="#1E1E1E"></path><path d="M281.155 14H284.155V16C284.155 16.5523 283.708 17 283.155 17H282.155C281.603 17 281.155 16.5523 281.155 16V14Z" fill="#1E1E1E"></path><rect x="277.155" y="6" width="11" height="2" rx="1" fill="#1E1E1E"></rect><path d="M279.155 1C279.155 0.447715 279.603 0 280.155 0C280.708 0 281.155 0.447715 281.155 1V5H279.155V1Z" fill="#1E1E1E"></path><path d="M284.155 1C284.155 0.447715 284.603 0 285.155 0C285.708 0 286.155 0.447715 286.155 1V5H284.155V1Z" fill="#1E1E1E"></path></svg>