<svg xmlns="http://www.w3.org/2000/svg" width="56" height="56" viewBox="0 0 56 56" fill="none"><path d="M35.0531 24.6473C35.0531 23.7775 34.3479 23.0723 33.4781 23.0723H16.1531C15.2834 23.0723 14.5781 23.7775 14.5781 24.6473C14.5781 25.517 15.2834 26.2223 16.1531 26.2223H33.4781C34.3479 26.2223 35.0531 25.517 35.0531 24.6473Z" fill="black"></path><path d="M16.1492 31.0259C15.2795 31.0259 14.5742 31.7311 14.5742 32.6009C14.5742 33.4706 15.2795 34.1759 16.1492 34.1759H25.335C26.2047 34.1759 26.91 33.4706 26.91 32.6009C26.91 31.7311 26.2047 31.0259 25.335 31.0259H16.1492Z" fill="black"></path><path d="M45.4288 24.7341C44.5591 24.7341 43.8538 25.4393 43.8538 26.3091V39.0473C43.8538 41.4308 41.9148 43.3698 39.5313 43.3698H28.9963C28.6551 43.3698 28.3226 43.4801 28.0496 43.6866L18.9531 50.5273C18.7221 50.7006 18.5051 50.6288 18.3966 50.5693C18.2863 50.5133 18.1043 50.3751 18.1113 50.0933L18.2863 45.0008C18.3003 44.5738 18.1411 44.1591 17.8453 43.8528C17.5496 43.5448 17.1401 43.3716 16.7131 43.3716H9.39633C7.01283 43.3716 5.07383 41.4343 5.07383 39.0491V18.2241C5.07383 15.8318 7.01283 13.8858 9.39633 13.8858H28.8038C29.6736 13.8858 30.3788 13.1806 30.3788 12.3108C30.3788 11.4411 29.6736 10.7358 28.8038 10.7358H9.39633C5.27683 10.7358 1.92383 14.0958 1.92383 18.2258V39.0491C1.92383 43.1686 5.27683 46.5233 9.39633 46.5233H15.0821L14.9631 49.9918C14.9211 51.4163 15.6788 52.7113 16.9441 53.3676C17.4848 53.6493 18.0676 53.7876 18.6451 53.7876C19.4203 53.7876 20.1886 53.5373 20.8431 53.0491L29.5213 46.5233H39.5296C43.6491 46.5233 47.0021 43.1703 47.0021 39.0491V26.3108C47.0038 25.4393 46.2986 24.7341 45.4288 24.7341Z" fill="black"></path><path d="M53.9421 9.73137C53.6568 8.85637 52.9551 8.20188 52.0643 7.98138L48.0393 6.97863L45.8413 3.46113C44.8666 1.89663 42.3221 1.90013 41.3491 3.46113L39.1511 6.97863L35.1261 7.98138C34.2353 8.20188 33.5318 8.85637 33.2483 9.73137C32.9648 10.6064 33.1468 11.5496 33.7383 12.2549L36.4053 15.4294L36.1148 19.5664C36.0501 20.4834 36.4561 21.3531 37.1998 21.8939C37.6618 22.2299 38.2043 22.4031 38.7538 22.4031C39.0881 22.4031 39.4258 22.3384 39.7496 22.2071L43.5961 20.6531L47.4408 22.2071C48.2931 22.5536 49.2451 22.4346 49.9906 21.8956C50.7343 21.3549 51.1403 20.4851 51.0773 19.5664L50.7868 15.4294L53.4538 12.2531C54.0436 11.5496 54.2273 10.6064 53.9421 9.73137ZM47.9641 13.8911C47.7016 14.2044 47.5703 14.6069 47.6001 15.0164L47.8801 18.9889L44.1876 17.4961C43.9986 17.4191 43.7973 17.3806 43.5978 17.3806C43.3983 17.3806 43.1971 17.4191 43.0081 17.4961L39.3173 18.9889L39.5956 15.0164C39.6236 14.6086 39.4923 14.2044 39.2316 13.8911L36.6713 10.8426L40.5353 9.87838C40.9308 9.77863 41.2738 9.53188 41.4891 9.18538L43.5996 5.80963L45.7101 9.18538C45.9271 9.53188 46.2683 9.78038 46.6638 9.87838L50.5278 10.8426L47.9641 13.8911Z" fill="black"></path></svg>