<svg xmlns="http://www.w3.org/2000/svg" width="56" height="57" viewBox="0 0 56 57" fill="none"><path d="M51.1429 11.6417C49.1223 10.4083 46.4177 10.9852 45.1291 13.0963C45.1044 13.1368 43.4063 15.9184 43.4194 15.8969C43.4192 15.8971 43.4193 15.8972 43.4191 15.8972L39.9493 21.5812V12.0941C39.9493 11.8082 39.8356 11.5368 39.6444 11.3377C39.6018 11.2926 31.9928 3.68381 31.9565 3.64968C31.8943 3.58953 31.8831 3.58537 31.8685 3.57389C31.7271 3.46429 31.568 3.39287 31.3869 3.36126C31.1909 3.32735 32.9059 3.35207 3.85547 3.34409C3.25139 3.34409 2.76172 3.83376 2.76172 4.43784V52.5628C2.76172 53.1668 3.25139 53.6566 3.85547 53.6566H38.8556C39.4595 53.6566 39.9493 53.1668 39.9493 52.5628V38.3745L49.1781 23.2568L52.5975 17.6555C53.8544 15.5964 53.2019 12.8987 51.1429 11.6417ZM47.8808 21.1835L44.1465 18.9039L44.7164 17.9704L48.4507 20.25L47.8808 21.1835ZM35.913 40.7881L32.1788 38.5085L43.0068 20.7709L46.7411 23.0505L35.913 40.7881ZM31.5765 43.6936L31.2726 40.518L34.5399 42.5127L31.5765 43.6936ZM32.2931 7.07848L36.2149 11.0003H32.2931V7.07848ZM37.7618 51.4692H4.94922V5.5317H30.1056V12.0942C30.1056 12.6983 30.5954 13.1879 31.1993 13.1879H37.7618V25.1647C36.9768 26.4505 30.0636 37.7753 29.1721 39.2357C29.0487 39.4377 28.9942 39.6742 29.0169 39.9098L29.487 44.8217C28.9822 45.1287 27.7874 45.5791 26.1883 45.6167C24.5124 45.6583 22.0735 45.243 19.954 43.0524C18.7652 41.8236 17.3094 41.169 15.6065 41.169C11.518 41.169 7.61731 45.0649 7.45281 45.2312C7.02844 45.6604 7.03216 46.3518 7.46091 46.7767C7.88955 47.2018 8.58178 47.1985 9.00725 46.7703C9.04127 46.736 12.4354 43.3565 15.6053 43.3565C16.6644 43.3565 17.5766 43.7409 18.3819 44.5733C20.9573 47.2354 23.9141 47.8064 25.9762 47.8064C26.4484 47.8064 26.8738 47.7766 27.2369 47.7348C28.7386 47.5625 30.4742 47.0176 31.2935 46.1611L36.1118 44.2409C36.3316 44.1532 36.5171 43.9968 36.6404 43.7947C36.6811 43.7281 37.7453 41.9847 37.7618 41.9576V51.4692ZM50.7303 16.5157L49.5904 18.3829L45.8562 16.1033L46.996 14.2362C47.6366 13.1865 48.9862 12.8884 50.003 13.5089C51.0325 14.1373 51.3588 15.4862 50.7303 16.5157Z" fill="black"></path><path d="M8.23047 11.0005H26.8242C27.4283 11.0005 27.918 10.5108 27.918 9.90674C27.918 9.30266 27.4283 8.81299 26.8242 8.81299H8.23047C7.62639 8.81299 7.13672 9.30266 7.13672 9.90674C7.13672 10.5108 7.62639 11.0005 8.23047 11.0005Z" fill="black"></path><path d="M8.23047 17.563H26.8242C27.4283 17.563 27.918 17.0733 27.918 16.4692C27.918 15.8652 27.4283 15.3755 26.8242 15.3755H8.23047C7.62639 15.3755 7.13672 15.8652 7.13672 16.4692C7.13672 17.0733 7.62639 17.563 8.23047 17.563Z" fill="black"></path><path d="M8.23047 37.2505H26.8242C27.4283 37.2505 27.918 36.7607 27.918 36.1567C27.918 35.5528 27.4283 35.063 26.8242 35.063H8.23047C7.62639 35.063 7.13672 35.5528 7.13672 36.1567C7.13672 36.7607 7.62639 37.2505 8.23047 37.2505Z" fill="black"></path><path d="M8.23047 24.1255H31.1993C31.8033 24.1255 32.2931 23.6358 32.2931 23.0317C32.2931 22.4277 31.8033 21.938 31.1993 21.938H8.23047C7.62639 21.938 7.13672 22.4277 7.13672 23.0317C7.13672 23.6358 7.62639 24.1255 8.23047 24.1255Z" fill="black"></path><path d="M8.23047 30.688H31.1993C31.8033 30.688 32.2931 30.1982 32.2931 29.5942C32.2931 28.9903 31.8033 28.5005 31.1993 28.5005H8.23047C7.62639 28.5005 7.13672 28.9903 7.13672 29.5942C7.13672 30.1982 7.62639 30.688 8.23047 30.688Z" fill="black"></path></svg>