<svg xmlns="http://www.w3.org/2000/svg" width="56" height="56" viewBox="0 0 56 56" fill="none"><path d="M18.6667 20.4165H7C6.04333 20.4165 5.25 19.6232 5.25 18.6665V18.2698C5.25 16.5432 5.92667 14.9332 7.14 13.7198L16.0533 4.8065C17.2667 3.59317 18.8767 2.9165 20.6033 2.9165H21C21.9567 2.9165 22.75 3.70984 22.75 4.6665V16.3332C22.75 18.5732 20.9067 20.4165 18.6667 20.4165ZM9.07667 16.9165H18.6667C18.9933 16.9165 19.25 16.6598 19.25 16.3332V6.74317C18.9933 6.88317 18.7367 7.06984 18.5267 7.27984L9.61333 16.1932C9.40333 16.4032 9.21667 16.6598 9.07667 16.9165Z" fill="black"></path><path d="M37.332 46.0835C32.502 46.0835 28.582 42.1635 28.582 37.3335C28.582 32.5035 32.502 28.5835 37.332 28.5835C42.162 28.5835 46.082 32.5035 46.082 37.3335C46.082 42.1635 42.162 46.0835 37.332 46.0835ZM37.332 32.0835C34.4387 32.0835 32.082 34.4402 32.082 37.3335C32.082 40.2268 34.4387 42.5835 37.332 42.5835C40.2254 42.5835 42.582 40.2268 42.582 37.3335C42.582 34.4402 40.2254 32.0835 37.332 32.0835Z" fill="black"></path><path d="M39.078 53.0839H35.578C34.178 53.0839 32.9647 52.1739 32.5447 50.8439C32.3114 50.0739 31.5647 50.0272 31.168 50.2372C29.9314 50.9372 28.4147 50.7039 27.4114 49.7005L24.9147 47.2039C23.9347 46.2239 23.7014 44.7072 24.378 43.4705C24.448 43.3305 24.4947 43.1906 24.4947 43.0272C24.4947 42.6772 24.308 42.2339 23.818 42.0939C22.4414 41.6739 21.5547 40.4605 21.5547 39.0605V35.5605C21.5547 34.1605 22.4647 32.9472 23.7947 32.5272C24.3314 32.3872 24.4947 31.9205 24.4947 31.5939C24.4947 31.4305 24.448 31.2905 24.378 31.1505C24.1214 30.6839 23.9814 30.1472 23.9814 29.6339C23.9814 28.7939 24.308 28.0239 24.9147 27.4172L27.4114 24.9205C28.3914 23.9172 29.908 23.7072 31.1447 24.3839C31.588 24.6405 32.3114 24.5705 32.5214 23.8239C32.9414 22.4472 34.1547 21.5605 35.5547 21.5605H39.0547C40.4547 21.5605 41.668 22.4705 42.088 23.8005C42.3214 24.5705 43.068 24.6172 43.4647 24.3839C44.678 23.6839 46.218 23.9172 47.198 24.8972L49.6947 27.3939C50.6747 28.3739 50.908 29.8905 50.2314 31.1272C50.1614 31.2672 50.1147 31.4072 50.1147 31.5705C50.1147 31.9205 50.3014 32.3639 50.7914 32.5039C52.168 32.9239 53.0547 34.1372 53.0547 35.5372V39.0372C53.0547 40.4372 52.1447 41.6506 50.8147 42.0706C50.418 42.1872 50.2547 42.4672 50.1847 42.6305C50.1147 42.7939 50.0447 43.1205 50.2314 43.4705C50.488 43.9372 50.628 44.4506 50.628 44.9872C50.628 45.8272 50.3014 46.5972 49.6947 47.2039L47.198 49.7005C46.1947 50.6805 44.7014 50.9139 43.4647 50.2372C43.0214 49.9806 42.298 50.0506 42.088 50.7972C41.668 52.1739 40.4547 53.0605 39.0547 53.0605L39.078 53.0839ZM35.8114 49.5839H38.8214C39.428 47.8339 41.108 46.6439 43.0447 46.6439C43.698 46.6439 44.3514 46.7839 44.9347 47.0639L47.1047 44.9172C46.5447 43.8905 46.498 42.5372 46.988 41.3239C47.478 40.1572 48.4114 39.2705 49.578 38.8505V35.8405C47.828 35.2339 46.638 33.5539 46.638 31.6172C46.638 30.9639 46.778 30.3105 47.058 29.7272L44.9114 27.5805C44.4447 27.8605 43.7447 28.0239 43.0447 28.0239C41.1314 28.0239 39.4514 26.8572 38.8447 25.0839H35.8347C35.228 26.8339 33.548 28.0239 31.6114 28.0239C30.958 28.0239 30.3047 27.8839 29.7214 27.6039L27.5747 29.7505C27.8547 30.2172 28.018 30.9172 28.018 31.6172C28.018 33.5305 26.8514 35.2105 25.078 35.8172V38.8272C26.828 39.4339 28.018 41.1139 28.018 43.0506C28.018 43.7039 27.878 44.3572 27.598 44.9405L29.7447 47.0872C30.2114 46.8072 30.9114 46.6439 31.6114 46.6439C33.5247 46.6439 35.2047 47.8105 35.8114 49.5839Z" fill="black"></path><path d="M25.7793 51.3807L23.9827 49.584H11.6393C10.0293 49.584 8.72266 48.2774 8.72266 46.6674V18.2707C8.72266 17.5007 9.02599 16.754 9.58599 16.194L18.4993 7.28071C19.0593 6.72071 19.7827 6.41738 20.576 6.41738H39.6393C41.2493 6.41738 42.556 7.72404 42.556 9.33404V20.534C42.9993 20.9074 43.396 21.3274 43.7227 21.8174C44.4927 21.6307 45.286 21.654 46.056 21.8174V9.31071C46.056 5.76404 43.186 2.89404 39.6393 2.89404H20.576C18.8493 2.89404 17.2393 3.57071 16.026 4.78404L7.11266 13.6974C5.89932 14.9107 5.22266 16.5207 5.22266 18.2474V46.644C5.22266 50.1907 8.09266 53.0607 11.6393 53.0607H25.8493" fill="black"></path></svg>