<svg xmlns="http://www.w3.org/2000/svg" width="56" height="56" viewBox="0 0 56 56" fill="none"><g clip-path="url(#clip0_53_346)"><path d="M27.998 6.56152C27.092 6.56152 26.3574 7.29609 26.3574 8.20215C26.3574 9.10821 27.092 9.84277 27.998 9.84277C33.4268 9.84277 37.8434 14.2587 37.8434 19.6865C37.8434 20.5926 38.578 21.3271 39.4841 21.3271C40.3901 21.3271 41.1247 20.5926 41.1247 19.6865C41.1247 12.4494 35.2362 6.56152 27.998 6.56152Z" fill="black"></path><path d="M23.7719 0.440465C16.3596 1.98932 10.3494 7.94195 8.76796 15.4003C7.4326 21.6984 9.07815 28.0213 13.2826 32.748C15.3379 35.0583 16.5165 38.108 16.5165 41.1236V44.4048C16.5165 46.588 17.9457 48.4426 19.9173 49.085C20.5657 52.9159 23.8907 55.9985 28.0009 55.9985C32.11 55.9985 35.4359 52.9168 36.0845 49.085C38.0561 48.4426 39.4853 46.588 39.4853 44.4047V41.1235C39.4853 38.102 40.6678 35.0889 42.8149 32.6394C45.9576 29.0541 47.6884 24.4537 47.6884 19.6861C47.6884 7.26492 36.319 -2.18082 23.7719 0.440465ZM28.0009 52.7173C25.8919 52.7173 24.0428 51.2662 23.36 49.3158H32.6417C31.959 51.2662 30.1099 52.7173 28.0009 52.7173ZM36.204 44.4048C36.204 45.3095 35.468 46.0455 34.5634 46.0455H21.4384C20.5338 46.0455 19.7978 45.3095 19.7978 44.4048V42.7642H36.204V44.4048ZM40.3474 30.4767C38.0592 33.0872 36.6515 36.235 36.2943 39.483H19.7079C19.3511 36.2332 17.9469 33.0545 15.7345 30.5672C12.2303 26.6279 10.8611 21.3478 11.9779 16.081C13.2815 9.93257 18.2909 4.93796 24.4431 3.65248C34.9458 1.45765 44.4071 9.3449 44.4071 19.6861C44.4071 23.6577 42.9654 27.4899 40.3474 30.4767Z" fill="black"></path><path d="M4.92188 19.6865H1.64062C0.734562 19.6865 0 20.4211 0 21.3271C0 22.2332 0.734562 22.9678 1.64062 22.9678H4.92188C5.82794 22.9678 6.5625 22.2332 6.5625 21.3271C6.5625 20.4211 5.82794 19.6865 4.92188 19.6865Z" fill="black"></path><path d="M5.60135 11.4833L3.28118 9.16316C2.64057 8.52244 1.60173 8.52244 0.961008 9.16316C0.320289 9.80387 0.320289 10.8426 0.961008 11.4833L3.28118 13.8035C3.92179 14.4442 4.96063 14.4443 5.60135 13.8035C6.24207 13.1628 6.24207 12.124 5.60135 11.4833Z" fill="black"></path><path d="M5.60135 28.8507C4.96063 28.2099 3.92179 28.2099 3.28118 28.8507L0.961008 31.1708C0.320289 31.8115 0.320289 32.8503 0.961008 33.491C1.60162 34.1317 2.64046 34.1318 3.28118 33.491L5.60135 31.1708C6.24207 30.5301 6.24207 29.4914 5.60135 28.8507Z" fill="black"></path><path d="M54.3594 19.6865H51.0781C50.1721 19.6865 49.4375 20.4211 49.4375 21.3271C49.4375 22.2332 50.1721 22.9678 51.0781 22.9678H54.3594C55.2654 22.9678 56 22.2332 56 21.3271C56 20.4211 55.2654 19.6865 54.3594 19.6865Z" fill="black"></path><path d="M55.0389 9.16316C54.3982 8.52244 53.3594 8.52244 52.7187 9.16316L50.3985 11.4833C49.7578 12.124 49.7578 13.1628 50.3985 13.8035C51.0391 14.4441 52.078 14.4442 52.7187 13.8035L55.0389 11.4833C55.6796 10.8426 55.6796 9.80387 55.0389 9.16316Z" fill="black"></path><path d="M55.0389 31.1708L52.7187 28.8507C52.0781 28.2099 51.0392 28.2099 50.3985 28.8507C49.7578 29.4914 49.7578 30.5301 50.3985 31.1708L52.7187 33.491C53.3593 34.1316 54.3981 34.1317 55.0389 33.491C55.6796 32.8503 55.6796 31.8115 55.0389 31.1708Z" fill="black"></path></g><defs><clipPath id="clip0_53_346"><rect width="56" height="56" fill="white"></rect></clipPath></defs></svg>