<svg xmlns="http://www.w3.org/2000/svg" width="56" height="56" viewBox="0 0 56 56" fill="none"><g clip-path="url(#clip0_53_404)"><path d="M3.28125 28C3.28125 14.37 14.37 3.28125 28 3.28125C33.1261 3.28125 38.0147 4.83558 42.1308 7.72045H38.9508C38.0448 7.72045 37.3102 8.45502 37.3102 9.36108C37.3102 10.2671 38.0448 11.0017 38.9508 11.0017H46.639C47.5451 11.0017 48.2797 10.2671 48.2797 9.36108V1.67289C48.2797 0.766828 47.5451 0.0322656 46.639 0.0322656C45.733 0.0322656 44.9984 0.766828 44.9984 1.67289V5.75684C40.1392 2.02333 34.2245 0 28 0C20.5209 0 13.4895 2.91255 8.20094 8.20094C2.91255 13.4895 0 20.5209 0 28C0 32.9132 1.29839 37.7543 3.75484 41.9998C4.05891 42.5254 4.60994 42.819 5.17639 42.819C5.4553 42.819 5.73792 42.7478 5.99659 42.5982C6.78081 42.1444 7.04867 41.1407 6.59498 40.3564C4.42717 36.6098 3.28125 32.3369 3.28125 28Z" fill="black"></path><path d="M52.2454 14.0003C51.7915 13.216 50.7877 12.9483 50.0037 13.402C49.2194 13.8558 48.9516 14.8595 49.4053 15.6438C51.5731 19.3902 52.719 23.663 52.719 28.0001C52.719 41.6301 41.6302 52.7189 28.0002 52.7189C22.8746 52.7189 17.9869 51.1641 13.8712 48.2797H17.0494C17.9555 48.2797 18.69 47.5451 18.69 46.639C18.69 45.733 17.9555 44.9984 17.0494 44.9984H9.36133C8.45527 44.9984 7.7207 45.733 7.7207 46.639V54.3272C7.7207 55.2333 8.45527 55.9678 9.36133 55.9678C10.2674 55.9678 11.002 55.2333 11.002 54.3272V50.2392C15.861 53.9739 21.775 56.0001 28.0002 56.0001C35.4793 56.0001 42.5107 53.0876 47.7993 47.7992C53.0877 42.5106 56.0002 35.4792 56.0002 28.0001C56.0002 23.0867 54.7019 18.2456 52.2454 14.0003Z" fill="black"></path><path d="M42.5915 24.7038C42.7041 24.2834 42.6451 23.8357 42.4276 23.4589L39.1463 17.7755C38.9288 17.3987 38.5703 17.1237 38.1501 17.0111C37.7298 16.8985 37.282 16.9574 36.9052 17.175L35.0375 18.2534C34.3733 17.7715 33.6662 17.3618 32.9213 17.0274V14.875C32.9213 13.9689 32.1868 13.2344 31.2807 13.2344H24.7182C23.8122 13.2344 23.0776 13.9689 23.0776 14.875V17.0273C22.3327 17.3617 21.6257 17.7714 20.9614 18.2533L19.0937 17.1749C18.7169 16.9573 18.2687 16.8983 17.8488 17.011C17.4285 17.1235 17.0702 17.3985 16.8526 17.7754L13.5714 23.4587C13.3538 23.8355 13.2949 24.2834 13.4074 24.7037C13.5201 25.124 13.795 25.4823 14.1718 25.6998L16.0305 26.7728C15.989 27.1802 15.9682 27.5902 15.9682 28C15.9682 28.4098 15.989 28.8198 16.0305 29.227L14.1718 30.2999C13.795 30.5175 13.5201 30.8759 13.4074 31.2961C13.2949 31.7165 13.3538 32.1642 13.5714 32.541L16.8526 38.2244C17.0702 38.6012 17.4286 38.8761 17.8488 38.9888C18.2692 39.1016 18.717 39.0425 19.0937 38.8248L20.9614 37.7465C21.6256 38.2285 22.3327 38.6381 23.0776 38.9725V41.125C23.0776 42.0311 23.8122 42.7656 24.7182 42.7656H31.2807C32.1868 42.7656 32.9213 42.0311 32.9213 41.125V38.9727C33.6662 38.6384 34.3732 38.2286 35.0375 37.7467L36.9052 38.8251C37.2819 39.0426 37.73 39.1016 38.1501 38.989C38.5705 38.8765 38.9288 38.6015 39.1463 38.2246L42.4276 32.5412C42.6451 32.1645 42.7041 31.7166 42.5915 31.2963C42.4789 30.876 42.2039 30.5177 41.8271 30.3002L39.9685 29.2272C40.0099 28.8198 40.0307 28.4098 40.0307 28C40.0307 27.5902 40.0099 27.1802 39.9685 26.773L41.8271 25.7001C42.2039 25.4824 42.4789 25.1241 42.5915 24.7038ZM36.5724 26.2395C36.6899 26.8151 36.7495 27.4075 36.7495 28C36.7495 28.5925 36.6899 29.1849 36.5724 29.7605C36.4311 30.4522 36.7482 31.1567 37.3595 31.5096L38.7656 32.3214L37.125 35.163L35.7071 34.3444C35.0955 33.9912 34.3262 34.0692 33.7977 34.5382C32.903 35.3324 31.8817 35.924 30.7624 36.2967C30.0921 36.5199 29.64 37.1469 29.64 37.8534V39.4844H26.3587V37.8534C26.3587 37.147 25.9066 36.5199 25.2363 36.2967C24.117 35.924 23.0957 35.3324 22.2011 34.5382C21.6727 34.0691 20.9033 33.9912 20.2916 34.3444L18.8738 35.163L17.2331 32.3214L18.6393 31.5096C19.2506 31.1567 19.5676 30.4522 19.4263 29.7605C19.3091 29.1849 19.2495 28.5925 19.2495 28C19.2495 27.4075 19.3091 26.8151 19.4265 26.2395C19.5679 25.5478 19.2508 24.8433 18.6395 24.4904L17.2334 23.6786L18.874 20.837L20.2918 21.6556C20.9035 22.0089 21.6728 21.9309 22.2013 21.4618C23.096 20.6676 24.1172 20.076 25.2367 19.7032C25.9068 19.48 26.359 18.853 26.359 18.1466V16.5156H29.6402V18.1466C29.6402 18.853 30.0924 19.48 30.7625 19.7032C31.882 20.076 32.9032 20.6676 33.7979 21.4618C34.3263 21.9309 35.0956 22.0088 35.7073 21.6556L37.1252 20.837L38.7658 23.6786L37.3597 24.4904C36.7482 24.8433 36.4311 25.5478 36.5724 26.2395Z" fill="black"></path><path d="M28 21.9844C24.683 21.9844 21.9844 24.683 21.9844 28C21.9844 31.317 24.683 34.0156 28 34.0156C31.317 34.0156 34.0156 31.317 34.0156 28C34.0156 24.683 31.317 21.9844 28 21.9844ZM28 30.7344C26.4923 30.7344 25.2656 29.5077 25.2656 28C25.2656 26.4923 26.4923 25.2656 28 25.2656C29.5077 25.2656 30.7344 26.4923 30.7344 28C30.7344 29.5077 29.5077 30.7344 28 30.7344Z" fill="black"></path></g><defs><clipPath id="clip0_53_404"><rect width="56" height="56" fill="white"></rect></clipPath></defs></svg>