<svg xmlns="http://www.w3.org/2000/svg" width="56" height="57" viewBox="0 0 56 57" fill="none"><g clip-path="url(#clip0_53_377)"><path d="M23.8666 30.1769L5.98126 20.4568C5.3837 20.132 4.65625 20.5647 4.65625 21.2447V43.7929C4.65625 44.1153 4.82947 44.4131 5.10981 44.5725L22.9953 54.7403C23.593 55.0802 24.3353 54.6484 24.3353 53.9606V30.9648C24.3352 30.6362 24.1554 30.3338 23.8666 30.1769Z" stroke="black" stroke-width="3.28272" stroke-miterlimit="10" stroke-linecap="round" stroke-linejoin="round"></path><path d="M47.613 12.3528L28.1095 2.24175C27.849 2.10672 27.5388 2.10759 27.2792 2.24426L8.06314 12.3555C7.4252 12.6912 7.42399 13.6042 8.06117 13.9416L27.2772 24.1157C27.538 24.2538 27.8499 24.2547 28.1116 24.1182L47.6152 13.9441C48.2587 13.6084 48.2575 12.687 47.613 12.3528Z" stroke="black" stroke-width="3.28272" stroke-miterlimit="10" stroke-linecap="round" stroke-linejoin="round"></path><path d="M50.0181 20.4568L32.1326 30.1769C31.8438 30.3338 31.6641 30.6362 31.6641 30.9649V53.9606C31.6641 54.6484 32.4062 55.0801 33.004 54.7403L50.8894 44.5725C51.1698 44.4131 51.343 44.1154 51.343 43.7929V21.2447C51.3431 20.5647 50.6156 20.132 50.0181 20.4568Z" stroke="black" stroke-width="3.28272" stroke-miterlimit="10" stroke-linecap="round" stroke-linejoin="round"></path></g><defs><clipPath id="clip0_53_377"><rect width="56" height="56" fill="white" transform="translate(0 0.5)"></rect></clipPath></defs></svg>