<svg xmlns="http://www.w3.org/2000/svg" width="56" height="56" viewBox="0 0 56 56" fill="none"><path fill-rule="evenodd" clip-rule="evenodd" d="M31.5495 22.5486C32.8178 23.8169 33.6071 25.4858 33.7828 27.2709C33.9586 29.0559 33.51 30.8467 32.5135 32.338C31.5169 33.8294 30.0341 34.9291 28.3176 35.4497C26.6012 35.9704 24.7573 35.8797 23.1002 35.1933C21.4431 34.5069 20.0752 33.2671 19.2297 31.6852C18.3842 30.1033 18.1133 28.2772 18.4633 26.518C18.8132 24.7588 19.7623 23.1753 21.1488 22.0374C22.5354 20.8996 24.2736 20.2776 26.0672 20.2776C27.0856 20.2764 28.0942 20.4763 29.035 20.866C29.9758 21.2558 30.8304 21.8276 31.5495 22.5486ZM16.4244 32.0208C16.681 32.6393 16.9968 33.2316 17.3672 33.7895C17.4446 33.9061 17.4894 34.0412 17.4971 34.1809C17.5048 34.3205 17.4751 34.4597 17.411 34.5841L16.6453 36.0657L18.0308 37.4512L19.505 36.6831V36.6841C19.6295 36.6193 19.7691 36.5891 19.9093 36.5965C20.0495 36.6039 20.1852 36.6487 20.3022 36.7262C21.4199 37.4685 22.6704 37.9881 23.9851 38.2565C24.1228 38.284 24.2505 38.348 24.3551 38.4417C24.4597 38.5354 24.5372 38.6555 24.5795 38.7894L25.0845 40.3753H27.0464L27.5442 38.7944H27.5459C27.5878 38.6597 27.6653 38.5387 27.7701 38.4443C27.875 38.3499 28.0034 38.2855 28.1417 38.2579C29.4571 37.9921 30.7083 37.4734 31.8259 36.7306C31.9426 36.6534 32.0777 36.6086 32.2174 36.601C32.3571 36.5935 32.4963 36.6233 32.6207 36.6874L34.1021 37.453L35.4876 36.0676L34.7196 34.5934H34.7205C34.6558 34.4688 34.6256 34.3292 34.633 34.189C34.6404 34.0488 34.6852 33.9132 34.7628 33.7962C35.5051 32.6784 36.0246 31.4279 36.2929 30.1133C36.3204 29.9756 36.3844 29.8478 36.4781 29.7433C36.5719 29.6387 36.6919 29.5612 36.8258 29.5188L38.4117 29.0139V27.052L36.8309 26.5541V26.5525C36.6963 26.5105 36.5755 26.4329 36.4812 26.3281C36.3869 26.2232 36.3226 26.0949 36.295 25.9566C36.0291 24.6412 35.5104 23.39 34.7677 22.2723C34.6903 22.1557 34.6455 22.0206 34.6378 21.881C34.6301 21.7413 34.6599 21.6021 34.7239 21.4777L35.4896 19.9962L34.104 18.6107L32.6298 19.3788V19.3777C32.5053 19.4425 32.3656 19.4727 32.2254 19.4653C32.0852 19.4579 31.9496 19.4131 31.8325 19.3356C30.7147 18.5935 29.4642 18.0741 28.1496 17.8058C28.0119 17.7783 27.8842 17.7143 27.7796 17.6206C27.675 17.5269 27.5975 17.4069 27.5552 17.273L27.0502 15.6871H25.0883L24.5903 17.2682H24.5887C24.5467 17.4028 24.4692 17.5236 24.3643 17.6179C24.2594 17.7122 24.1311 17.7765 23.9928 17.8041C22.6776 18.07 21.4265 18.5887 20.309 19.3313C20.1924 19.4086 20.0572 19.4535 19.9176 19.4611C19.7779 19.4688 19.6386 19.4391 19.5142 19.3751L18.0324 18.6095L16.6469 19.9938L17.4149 21.468L17.4139 21.4685C17.4787 21.5931 17.5089 21.7327 17.5015 21.8729C17.4941 22.0131 17.4493 22.1487 17.3718 22.2657C16.6293 23.3834 16.1097 24.6339 15.8413 25.9486C15.8138 26.0863 15.7498 26.2141 15.6561 26.3187C15.5624 26.4232 15.4423 26.5007 15.3085 26.5431L13.7225 27.048V29.0098L15.3034 29.5077V29.5093C15.4381 29.5513 15.5591 29.6288 15.6535 29.7337C15.7479 29.8386 15.8123 29.9669 15.8399 30.1053C15.9724 30.7612 16.1681 31.4027 16.4244 32.0208ZM29.1675 7.07137C34.4355 7.7844 39.2359 10.4721 42.5972 14.5905C45.9585 18.709 47.6298 23.9506 47.2727 29.2546C46.9157 34.5586 44.557 39.5289 40.674 43.1597C36.791 46.7905 31.6737 48.8105 26.3576 48.8111C24.4771 48.8111 22.0701 48.7899 19.661 48.7689C17.5997 48.7509 15.5366 48.7329 12.959 48.7329H1.75V51.1462C5.09184 51.1485 9.37727 51.1651 13.6643 51.1817C17.4998 51.1964 21.3345 51.2112 26.3576 51.2112C32.332 51.2113 38.0795 48.923 42.4189 44.8165C46.7583 40.71 49.3598 35.0973 49.6889 29.132C50.018 23.1666 48.0496 17.3019 44.1883 12.7429C40.327 8.18404 34.8661 5.27735 28.9279 4.62028L28.8644 4.6194C28.6603 4.61779 28.4649 4.53685 28.3195 4.39371C28.174 4.25057 28.09 4.05647 28.0851 3.85247L28.0568 2.69922C28.0568 2.69594 28.0568 2.69528 28.0568 2.69484C28.0568 2.6944 28.0568 2.69659 28.0532 2.69484C28.0462 2.69167 28.0495 2.68915 28.0468 2.68948L28.0427 2.69309L24.1468 5.93059L24.1435 5.93278V5.93595C24.1435 5.94208 24.1419 5.94164 24.1426 5.94306C24.1432 5.94448 24.1431 5.94306 24.1456 5.9447L28.2062 9.40161L28.2109 9.40544C28.2145 9.40544 28.2087 9.40303 28.2156 9.39975C28.2225 9.39647 28.2179 9.40576 28.2203 9.40183C28.221 9.39912 28.2213 9.3963 28.2209 9.39351L28.1835 7.8709C28.1786 7.66311 28.2563 7.46185 28.3994 7.31116C28.5426 7.16048 28.7396 7.07265 28.9474 7.06689L29.0193 7.06514C29.0686 7.06354 29.118 7.06558 29.167 7.07126L29.1675 7.07137ZM9.60805 15.2397C12.1449 11.8722 15.6362 9.34577 19.6281 7.98892C19.5553 7.82843 19.4912 7.66413 19.436 7.49673C19.2685 6.98437 19.1853 6.44819 19.1897 5.90915C19.1904 5.80437 19.194 5.70025 19.2007 5.59678C15.4297 6.80571 12.028 8.95374 9.31549 11.8389C6.60297 14.7241 4.66869 18.2517 3.69448 22.0901C2.72027 25.9284 2.73813 29.9515 3.74639 33.781C4.75464 37.6106 6.72017 41.1208 9.4582 43.9818H12.9771C8.82798 40.5429 6.16298 35.6379 5.53565 30.2855C4.90832 24.9332 6.36688 19.5448 9.60838 15.2397H9.60805ZM49.6077 48.7329C49.8168 48.7328 50.0174 48.6497 50.1652 48.5018C50.3131 48.354 50.3962 48.1534 50.3962 47.9443V46.9716C50.3962 46.9673 50.3941 46.9677 50.3926 46.9681L50.3995 46.965C50.4012 46.9641 50.403 46.9634 50.4049 46.9631L50.4081 46.966L54.2472 50.3726C54.2492 50.3746 54.2489 50.3719 54.2495 50.3734C54.25 50.3748 54.2488 50.375 54.2487 50.3805V50.3821L54.25 50.3828L54.2487 50.3852C54.248 50.3865 54.2487 50.3838 54.2473 50.3852L50.4082 53.3055C50.4044 53.3083 50.4042 53.3097 50.4035 53.3098C50.4028 53.3099 50.4035 53.3078 50.3973 53.3047C50.391 53.3017 50.3951 53.3093 50.3931 53.3062C50.3911 53.303 50.3964 53.3072 50.3964 53.2987V52.2487C50.3964 52.0396 50.3133 51.839 50.1655 51.6911C50.0176 51.5432 49.817 51.4602 49.6079 51.4601H40.9771C41.2243 51.307 41.4688 51.15 41.7106 50.989C42.7412 50.3033 43.7249 49.5496 44.6554 48.7332L49.6077 48.7329Z" fill="black"></path></svg>