<svg xmlns="http://www.w3.org/2000/svg" width="56" height="56" viewBox="0 0 56 56" fill="none"><path d="M37.6294 17.5H18.375C17.6788 17.5 17.0111 17.7766 16.5188 18.2688C16.0266 18.7611 15.75 19.4288 15.75 20.125V35.8837C15.7523 36.5784 16.0299 37.2439 16.5219 37.7343C17.014 38.2246 17.6803 38.5 18.375 38.5H37.6337C38.3277 38.4977 38.9924 38.2207 39.4827 37.7296C39.973 37.2385 40.2488 36.5733 40.25 35.8794V20.125C40.25 19.4296 39.974 18.7625 39.4827 18.2704C38.9914 17.7782 38.3248 17.5012 37.6294 17.5ZM38.5 35.8794C38.4988 36.1099 38.4068 36.3307 38.2437 36.4937C38.0807 36.6568 37.8599 36.7488 37.6294 36.75H18.375C18.1437 36.75 17.9218 36.6584 17.7578 36.4953C17.5939 36.3321 17.5012 36.1107 17.5 35.8794V20.125C17.5 19.8929 17.5922 19.6704 17.7563 19.5063C17.9204 19.3422 18.1429 19.25 18.375 19.25H37.6337C37.8643 19.2523 38.0846 19.3455 38.2468 19.5094C38.409 19.6732 38.5 19.8944 38.5 20.125V35.8794Z" fill="black"></path><path d="M4.2245 14H5.43988C5.82642 15.3273 6.54404 16.5345 7.5253 17.5083C8.50657 18.4821 9.71928 19.1904 11.0495 19.5667L12.887 20.0917C12.9645 20.1134 13.0445 20.1246 13.125 20.125C13.298 20.125 13.4672 20.0736 13.611 19.9775C13.7549 19.8813 13.867 19.7447 13.9332 19.5848C13.9994 19.425 14.0168 19.2491 13.983 19.0793C13.9493 18.9096 13.866 18.7537 13.7436 18.6314L13.5931 18.4809C12.3822 17.277 11.6175 15.6966 11.4249 14H11.5255C12.1815 13.9991 12.8104 13.7381 13.2742 13.2742C13.7381 12.8104 13.9991 12.1815 14 11.5255V4.2245C13.9991 3.56851 13.7381 2.93965 13.2742 2.47579C12.8104 2.01193 12.1815 1.75093 11.5255 1.75H4.2245C3.56851 1.75093 2.93965 2.01193 2.47579 2.47579C2.01193 2.93965 1.75093 3.56851 1.75 4.2245V11.5255C1.75093 12.1815 2.01193 12.8104 2.47579 13.2742C2.93965 13.7381 3.56851 13.9991 4.2245 14ZM3.5 4.2245C3.5 4.03235 3.57633 3.84807 3.7122 3.7122C3.84807 3.57633 4.03235 3.5 4.2245 3.5H11.5255C11.7176 3.5 11.9019 3.57633 12.0378 3.7122C12.1737 3.84807 12.25 4.03235 12.25 4.2245V11.5255C12.25 11.7176 12.1737 11.9019 12.0378 12.0378C11.9019 12.1737 11.7176 12.25 11.5255 12.25H10.5C10.2679 12.25 10.0454 12.3422 9.88128 12.5063C9.71719 12.6704 9.625 12.8929 9.625 13.125C9.62118 14.6955 10.0162 16.2412 10.773 17.6173C9.80803 17.2081 8.958 16.5687 8.29723 15.7551C7.63645 14.9415 7.18505 13.9784 6.9825 12.95C6.94216 12.7524 6.83477 12.5747 6.67851 12.4472C6.52225 12.3196 6.32671 12.25 6.125 12.25H4.2245C4.03235 12.25 3.84807 12.1737 3.7122 12.0378C3.57633 11.9019 3.5 11.7176 3.5 11.5255V4.2245Z" fill="black"></path><path d="M51.7755 1.75H44.4745C43.8185 1.75093 43.1896 2.01193 42.7258 2.47579C42.2619 2.93965 42.0009 3.56851 42 4.2245V11.5255C42.0009 12.1815 42.2619 12.8104 42.7258 13.2742C43.1896 13.7381 43.8185 13.9991 44.4745 14H44.5751C44.3825 15.6966 43.6178 17.277 42.4069 18.4809L42.2564 18.6314C42.134 18.7537 42.0507 18.9096 42.017 19.0793C41.9832 19.2491 42.0006 19.425 42.0668 19.5848C42.133 19.7447 42.2451 19.8813 42.389 19.9775C42.5328 20.0736 42.702 20.125 42.875 20.125C42.956 20.1248 43.0367 20.1136 43.1147 20.0917L44.9523 19.5667C46.2821 19.1901 47.4945 18.4817 48.4754 17.5079C49.4564 16.5342 50.1737 15.3271 50.5601 14H51.7755C52.4315 13.9991 53.0604 13.7381 53.5242 13.2742C53.9881 12.8104 54.2491 12.1815 54.25 11.5255V4.2245C54.2491 3.56851 53.9881 2.93965 53.5242 2.47579C53.0604 2.01193 52.4315 1.75093 51.7755 1.75ZM52.5 11.5255C52.5 11.7176 52.4237 11.9019 52.2878 12.0378C52.1519 12.1737 51.9677 12.25 51.7755 12.25H49.875C49.6733 12.25 49.4778 12.3196 49.3215 12.4472C49.1652 12.5747 49.0578 12.7524 49.0175 12.95C48.8144 13.9777 48.3628 14.9401 47.702 15.7531C47.0413 16.5661 46.1915 17.2049 45.227 17.6137C45.9832 16.2387 46.3782 14.6943 46.375 13.125C46.375 12.8929 46.2828 12.6704 46.1187 12.5063C45.9546 12.3422 45.7321 12.25 45.5 12.25H44.4745C44.3794 12.25 44.2851 12.2313 44.1972 12.1949C44.1093 12.1584 44.0295 12.1051 43.9622 12.0378C43.8949 11.9705 43.8416 11.8907 43.8051 11.8028C43.7687 11.7149 43.75 11.6206 43.75 11.5255V4.2245C43.75 4.12936 43.7687 4.03515 43.8051 3.94725C43.8416 3.85935 43.8949 3.77948 43.9622 3.7122C44.0295 3.64493 44.1093 3.59156 44.1972 3.55515C44.2851 3.51874 44.3794 3.5 44.4745 3.5H51.7755C51.9677 3.5 52.1519 3.57633 52.2878 3.7122C52.4237 3.84807 52.5 4.03235 52.5 4.2245V11.5255Z" fill="black"></path><path d="M4.2245 54.2498H11.5255C12.1815 54.2488 12.8104 53.9878 13.2742 53.524C13.7381 53.0601 13.9991 52.4313 14 51.7753V44.4743C13.9991 43.8183 13.7381 43.1894 13.2742 42.7256C12.8104 42.2617 12.1815 42.0007 11.5255 41.9998H11.4249C11.6175 40.3032 12.3822 38.7228 13.5931 37.5189L13.7436 37.3684C13.8807 37.2314 13.9684 37.0527 13.993 36.8605C14.0176 36.6682 13.9776 36.4732 13.8794 36.3061C13.7812 36.139 13.6303 36.0093 13.4503 35.9372C13.2704 35.8652 13.0717 35.8549 12.8853 35.908L11.0478 36.433C9.71786 36.8096 8.50551 37.5181 7.52456 38.4918C6.54361 39.4656 5.82626 40.6727 5.43988 41.9998H4.2245C3.56851 42.0007 2.93965 42.2617 2.47579 42.7256C2.01193 43.1894 1.75093 43.8183 1.75 44.4743V51.7753C1.75093 52.4313 2.01193 53.0601 2.47579 53.524C2.93965 53.9878 3.56851 54.2488 4.2245 54.2498ZM3.5 44.4743C3.5 44.3791 3.51874 44.2849 3.55515 44.197C3.59156 44.1091 3.64493 44.0292 3.7122 43.962C3.77948 43.8947 3.85935 43.8413 3.94725 43.8049C4.03515 43.7685 4.12936 43.7498 4.2245 43.7498H6.125C6.32671 43.7498 6.52225 43.6802 6.67851 43.5526C6.83477 43.425 6.94216 43.2474 6.9825 43.0498C7.18558 42.022 7.63721 41.0596 8.29796 40.2467C8.95871 39.4337 9.80846 38.7949 10.773 38.386C10.0168 39.7611 9.62177 41.3055 9.625 42.8748C9.625 43.1068 9.71719 43.3294 9.88128 43.4935C10.0454 43.6576 10.2679 43.7498 10.5 43.7498H11.5255C11.6206 43.7498 11.7149 43.7685 11.8028 43.8049C11.8907 43.8413 11.9705 43.8947 12.0378 43.962C12.1051 44.0292 12.1584 44.1091 12.1949 44.197C12.2313 44.2849 12.25 44.3791 12.25 44.4743V51.7753C12.25 51.9674 12.1737 52.1517 12.0378 52.2876C11.9019 52.4234 11.7176 52.4998 11.5255 52.4998H4.2245C4.03235 52.4998 3.84807 52.4234 3.7122 52.2876C3.57633 52.1517 3.5 51.9674 3.5 51.7753V44.4743Z" fill="black"></path><path d="M51.7746 42.0001H50.5593C50.1727 40.6728 49.4551 39.4656 48.4738 38.4918C47.4926 37.5181 46.2799 36.8097 44.9496 36.4334L43.1121 35.9084C42.9257 35.8549 42.7267 35.865 42.5466 35.9369C42.3664 36.0088 42.2153 36.1386 42.1169 36.3058C42.0186 36.473 41.9786 36.6681 42.0032 36.8605C42.0278 37.0529 42.1156 37.2317 42.2529 37.3687L42.4034 37.5192C43.6153 38.7227 44.3809 40.3032 44.5743 42.0001H44.4736C43.8176 42.001 43.1888 42.262 42.7249 42.7259C42.2611 43.1898 42.0001 43.8186 41.9991 44.4746V51.7756C42.0001 52.4316 42.2611 53.0605 42.7249 53.5243C43.1888 53.9882 43.8176 54.2492 44.4736 54.2501H51.7746C52.4306 54.2492 53.0595 53.9882 53.5234 53.5243C53.9872 53.0605 54.2482 52.4316 54.2491 51.7756V44.4746C54.2482 43.8186 53.9872 43.1898 53.5234 42.7259C53.0595 42.262 52.4306 42.001 51.7746 42.0001ZM52.4991 51.7756C52.4991 51.9678 52.4228 52.152 52.2869 52.2879C52.1511 52.4238 51.9668 52.5001 51.7746 52.5001H44.4736C44.3785 52.5001 44.2843 52.4814 44.1964 52.445C44.1085 52.4086 44.0286 52.3552 43.9613 52.2879C43.8941 52.2206 43.8407 52.1408 43.8043 52.0529C43.7679 51.965 43.7491 51.8708 43.7491 51.7756V44.4746C43.7491 44.3795 43.7679 44.2853 43.8043 44.1974C43.8407 44.1095 43.8941 44.0296 43.9613 43.9623C44.0286 43.895 44.1085 43.8417 44.1964 43.8053C44.2843 43.7689 44.3785 43.7501 44.4736 43.7501H45.4991C45.7312 43.7501 45.9538 43.6579 46.1179 43.4938C46.282 43.3297 46.3741 43.1072 46.3741 42.8751C46.3778 41.305 45.9828 39.7596 45.2261 38.3837C46.191 38.7928 47.041 39.432 47.7018 40.2455C48.3626 41.0589 48.814 42.0219 49.0166 43.0501C49.057 43.2478 49.1644 43.4254 49.3206 43.5529C49.4769 43.6805 49.6724 43.7502 49.8741 43.7501H51.7746C51.8698 43.7501 51.964 43.7689 52.0519 43.8053C52.1398 43.8417 52.2197 43.895 52.2869 43.9623C52.3542 44.0296 52.4076 44.1095 52.444 44.1974C52.4804 44.2853 52.4991 44.3795 52.4991 44.4746V51.7756Z" fill="black"></path><path d="M26.25 21.875H19.25V23.625H26.25V21.875Z" fill="black"></path><path d="M29.75 21.875H28V23.625H29.75V21.875Z" fill="black"></path><path d="M36.75 21.875H31.5V23.625H36.75V21.875Z" fill="black"></path><path d="M36.75 25.375H21V27.125H36.75V25.375Z" fill="black"></path><path d="M33.25 28.875H19.25V30.625H33.25V28.875Z" fill="black"></path><path d="M36.75 28.875H35V30.625H36.75V28.875Z" fill="black"></path><path d="M21 32.375H19.25V34.125H21V32.375Z" fill="black"></path><path d="M36.75 32.375H22.75V34.125H36.75V32.375Z" fill="black"></path></svg>