<svg xmlns="http://www.w3.org/2000/svg" width="56" height="56" viewBox="0 0 56 56" fill="none"><path d="M31.4957 31.1939C31.4145 31.1126 31.3181 31.0481 31.2119 31.0041C31.1058 30.9601 30.992 30.9375 30.8771 30.9375C30.7622 30.9375 30.6484 30.9601 30.5422 31.0041C30.4361 31.0481 30.3397 31.1126 30.2584 31.1939L27.9299 33.5232C27.6334 33.8199 27.4668 34.2222 27.4668 34.6417C27.4668 35.0612 27.6334 35.4636 27.9299 35.7603L30.2584 38.0887C30.4225 38.2528 30.645 38.345 30.8771 38.345C31.1091 38.345 31.3317 38.2528 31.4957 38.0887C31.6598 37.9247 31.752 37.7021 31.752 37.4701C31.752 37.2381 31.6598 37.0155 31.4957 36.8514L29.286 34.6417L31.4957 32.4312C31.577 32.3499 31.6415 32.2535 31.6855 32.1473C31.7294 32.0412 31.7521 31.9274 31.7521 31.8125C31.7521 31.6976 31.7294 31.5838 31.6855 31.4777C31.6415 31.3715 31.577 31.2751 31.4957 31.1939Z" fill="black"></path><path d="M38.2505 31.1939C38.1692 31.2751 38.1048 31.3715 38.0608 31.4777C38.0168 31.5838 37.9941 31.6976 37.9941 31.8125C37.9941 31.9274 38.0168 32.0412 38.0608 32.1473C38.1048 32.2535 38.1692 32.3499 38.2505 32.4312L40.4602 34.6417L38.2505 36.8515C38.0864 37.0155 37.9942 37.2381 37.9942 37.4701C37.9942 37.7021 38.0864 37.9247 38.2505 38.0888C38.4146 38.2528 38.6371 38.345 38.8691 38.345C39.1012 38.345 39.3237 38.2528 39.4878 38.0888L41.8154 35.7611C41.9627 35.6144 42.0796 35.44 42.1593 35.2481C42.2391 35.0561 42.2802 34.8502 42.2803 34.6423C42.2804 34.4345 42.2394 34.2286 42.1598 34.0365C42.0802 33.8445 41.9635 33.6701 41.8163 33.5232L39.4878 31.1939C39.4066 31.1126 39.3102 31.0481 39.204 31.0041C39.0978 30.9601 38.9841 30.9375 38.8692 30.9375C38.7543 30.9375 38.6405 30.9601 38.5343 31.0041C38.4282 31.0481 38.3317 31.1126 38.2505 31.1939Z" fill="black"></path><path d="M36.3063 31.004C36.0903 30.9191 35.8494 30.9235 35.6367 31.0161C35.4239 31.1087 35.2566 31.282 35.1715 31.4979L32.9455 37.1547C32.9035 37.2616 32.8829 37.3758 32.8849 37.4907C32.887 37.6056 32.9116 37.719 32.9575 37.8243C33.0033 37.9297 33.0695 38.025 33.1522 38.1048C33.2349 38.1846 33.3325 38.2473 33.4394 38.2894C33.5464 38.3315 33.6606 38.3521 33.7755 38.3501C33.8904 38.348 34.0037 38.3234 34.1091 38.2775C34.2145 38.2316 34.3098 38.1655 34.3896 38.0828C34.4694 38.0001 34.5321 37.9025 34.5742 37.7955L36.8002 32.1388C36.8851 31.9228 36.8807 31.682 36.7881 31.4692C36.6955 31.2564 36.5222 31.0891 36.3063 31.004Z" fill="black"></path><path d="M50.9175 37.131L49.628 36.5995C49.4726 36.5378 49.341 36.4279 49.2526 36.286C49.1642 36.1441 49.1236 35.9775 49.1367 35.8108C49.2052 35.0165 49.2066 34.2179 49.141 33.4234C49.1286 33.2574 49.1693 33.0919 49.2571 32.9505C49.345 32.8092 49.4755 32.6995 49.6298 32.6372L50.9106 32.1049C51.5342 31.8418 52.0286 31.3433 52.2866 30.7177C52.5445 30.092 52.545 29.3898 52.2881 28.7638L51.3191 26.4345C51.0559 25.8111 50.5574 25.3167 49.9318 25.0588C49.3062 24.8009 48.6041 24.8003 47.978 25.0571L46.6911 25.5919C46.532 25.657 46.3562 25.6696 46.1895 25.6278C46.0227 25.586 45.8736 25.492 45.764 25.3595C45.2613 24.768 44.7115 24.2182 44.12 23.7155C43.9884 23.6064 43.8949 23.4582 43.8531 23.2924C43.8113 23.1267 43.8234 22.9519 43.8876 22.7935L44.4165 21.5092C44.6723 20.8823 44.67 20.1797 44.4101 19.5545C44.1501 18.9293 43.6536 18.4322 43.0287 18.1715C42.3298 17.9359 40.4302 16.9352 39.6843 17.0192V8.4269C39.683 7.18087 39.1874 5.98625 38.3063 5.10517C37.4252 4.22409 36.2306 3.72852 34.9846 3.72719C28.315 3.74137 14.8694 3.71697 8.19966 3.72719C6.95363 3.72851 5.75901 4.22409 4.87794 5.10517C3.99687 5.98625 3.50131 7.18087 3.5 8.4269V35.2118C3.50132 36.4578 3.99689 37.6525 4.87797 38.5335C5.75905 39.4146 6.95367 39.9102 8.1997 39.9115H17.2974C17.6074 40.9161 17.9845 41.8987 18.4262 42.8527C18.6877 43.4777 19.1862 43.9737 19.8126 44.232C20.4389 44.4903 21.1421 44.49 21.7682 44.231L23.0559 43.6952C23.2146 43.6302 23.39 43.6177 23.5564 43.6595C23.7227 43.7014 23.8713 43.7953 23.9805 43.9276C24.4829 44.52 25.0333 45.0699 25.6262 45.5717C25.7577 45.681 25.8511 45.8294 25.8927 45.9953C25.9343 46.1612 25.9221 46.336 25.8578 46.4945L25.328 47.7797C25.0707 48.4065 25.0725 49.1098 25.333 49.7353C25.5934 50.3608 26.0913 50.8575 26.7174 51.1165L29.0485 52.0778C29.6756 52.3326 30.378 52.3295 31.003 52.0694C31.628 51.8092 32.125 51.3129 32.3861 50.6883L32.9176 49.3998C32.9792 49.2444 33.0889 49.1128 33.2306 49.0242C33.3724 48.9357 33.5388 48.8948 33.7054 48.9076C34.5 48.9765 35.299 48.9779 36.0938 48.9119C36.2596 48.8997 36.4251 48.9404 36.5664 49.0282C36.7077 49.1161 36.8174 49.2465 36.8799 49.4006L37.4114 50.6807C37.6743 51.3045 38.1729 51.7993 38.7988 52.0573C39.4247 52.3152 40.1272 52.3155 40.7533 52.0581L43.0818 51.09C43.707 50.8287 44.203 50.3302 44.4612 49.7037C44.7195 49.0773 44.7187 48.374 44.4592 47.7481L43.9243 46.4621C43.8596 46.303 43.8472 46.1275 43.889 45.9609C43.9308 45.7943 44.0246 45.6454 44.1567 45.5358C44.7483 45.0328 45.2981 44.4827 45.8008 43.8909C46.3764 43.2034 47.2975 43.9724 48.008 44.1891C48.6349 44.4463 49.3383 44.4445 49.9639 44.1841C50.5895 43.9236 51.0864 43.4258 51.3456 42.7997L52.3069 40.4687C52.5644 39.8417 52.5628 39.1383 52.3023 38.5126C52.0418 37.8868 51.5438 37.39 50.9175 37.131ZM37.9343 8.4269V17.7492C37.687 17.9906 37.4916 18.28 37.3601 18.5996C37.0193 19.2453 36.8942 20.4579 36.0399 20.3803C35.2457 20.3119 34.447 20.3105 33.6525 20.3761C33.4868 20.3873 33.3217 20.3461 33.1807 20.2584C33.0396 20.1707 32.9297 20.0409 32.8664 19.8873L32.334 18.6065C32.0709 17.983 31.5723 17.4886 30.9467 17.2307C30.3211 16.9728 29.619 16.9722 28.9929 17.2291L26.6636 18.198C26.0385 18.4591 25.5425 18.9575 25.2842 19.5838C25.026 20.2101 25.0267 20.9133 25.2862 21.5391L25.8219 22.8259C25.8865 22.9851 25.8986 23.1607 25.8567 23.3272C25.8148 23.4938 25.7209 23.6426 25.5887 23.7522C24.9967 24.2547 24.4468 24.8049 23.9446 25.3971C23.5499 25.8973 22.9293 25.6153 22.4672 25.3997C22.4618 23.393 22.4711 19.0458 22.4672 17.0103C23.0299 17.1226 23.6099 17.1149 24.1694 16.9879C24.7289 16.8608 25.2554 16.6172 25.7143 16.2728C29.0016 13.7503 26.4486 8.60634 22.4672 9.50278L22.4673 5.47719H34.9846C35.7666 5.4782 36.5163 5.7893 37.0693 6.34226C37.6222 6.89522 37.9333 7.6449 37.9343 8.4269ZM5.25 8.4269C5.25101 7.6449 5.56211 6.89522 6.11507 6.34226C6.66802 5.7893 7.4177 5.4782 8.1997 5.47719H20.7172V9.77699C20.7182 9.99359 20.7656 10.2075 20.856 10.4043C20.9465 10.6011 21.078 10.7763 21.2417 10.9181C21.4054 11.0599 21.5975 11.1652 21.8052 11.2267C22.0128 11.2882 22.2313 11.3047 22.4458 11.2749C22.8777 11.1323 23.3408 11.1131 23.7831 11.2195C24.2253 11.326 24.6289 11.5538 24.9486 11.8774C25.2272 12.2094 25.3969 12.619 25.4346 13.0507C25.4724 13.4825 25.3763 13.9154 25.1595 14.2906C24.9427 14.6659 24.6157 14.9653 24.2228 15.1482C23.8299 15.3312 23.3903 15.3888 22.9635 15.3132L22.4467 15.2398C22.2321 15.2101 22.0136 15.2265 21.8059 15.2881C21.5982 15.3496 21.4061 15.4548 21.2423 15.5966C21.0786 15.7385 20.947 15.9136 20.8564 16.1104C20.7659 16.3072 20.7184 16.5211 20.7172 16.7377V20.9914H16.7361C17.5982 14.669 8.27372 14.737 9.23108 20.9914L5.25 20.9914V8.4269ZM5.25 35.2118V22.7413H9.50281C9.71953 22.7415 9.93376 22.6951 10.131 22.6053C10.3283 22.5156 10.5039 22.3845 10.6461 22.2209C11.2147 21.644 10.9474 20.7842 10.8802 20.0787C10.8865 19.6479 11.0256 19.2295 11.2786 18.8807C11.5315 18.5319 11.8859 18.2696 12.2935 18.1297C12.701 17.9898 13.1418 17.979 13.5556 18.0989C13.9695 18.2188 14.3362 18.4635 14.6059 18.7996C14.8267 19.1176 14.9735 19.4809 15.0356 19.8629C15.0977 20.245 15.0734 20.6361 14.9647 21.0075C14.935 21.2225 14.9515 21.4413 15.0131 21.6493C15.0747 21.8574 15.18 22.0499 15.322 22.214C15.464 22.3781 15.6393 22.51 15.8363 22.6009C16.0333 22.6919 16.2474 22.7397 16.4644 22.7413H20.7172V24.9098C20.2195 24.9193 19.7353 25.0737 19.3239 25.354C18.9124 25.6344 18.5916 26.0285 18.4007 26.4883L17.4393 28.8194C17.1819 29.4463 17.1836 30.1497 17.444 30.7754C17.7045 31.4011 18.2025 31.898 18.8287 32.157L20.1173 32.6885C20.2727 32.7501 20.4043 32.8598 20.4928 33.0016C20.5814 33.1434 20.6223 33.3097 20.6095 33.4764C20.541 34.271 20.5396 35.0699 20.6052 35.8647C20.6879 36.7143 19.4616 36.8473 18.8364 37.1824C18.3568 37.3816 17.9499 37.7234 17.6709 38.1616H8.1997C7.4177 38.1606 6.66801 37.8494 6.11505 37.2965C5.56209 36.7435 5.251 35.9938 5.25 35.2118ZM50.6885 39.8021L49.7272 42.1332C49.6451 42.3302 49.4885 42.4869 49.2915 42.569C49.0945 42.6511 48.873 42.652 48.6753 42.5716L47.3901 42.0401C46.8894 41.8349 46.3365 41.7939 45.811 41.9231C45.2856 42.0522 44.8146 42.3448 44.4661 42.7587C43.3348 44.0747 41.4469 45.1095 42.3086 47.1346L42.8434 48.4205C42.9253 48.618 42.9256 48.8398 42.8442 49.0375C42.7629 49.2351 42.6065 49.3924 42.4093 49.475L40.0808 50.4431C39.9831 50.4839 39.8783 50.5049 39.7724 50.5051C39.6666 50.5052 39.5617 50.4845 39.4639 50.444C38.9954 50.335 38.6922 49.0864 38.4948 48.729C37.6495 46.6602 35.6042 47.3188 33.8549 47.1645C33.3175 47.1198 32.7799 47.2478 32.3202 47.5298C31.8606 47.8118 31.5029 48.2331 31.2992 48.7324C31.1329 49.0219 30.7851 50.3762 30.3328 50.4584C30.235 50.4996 30.13 50.5209 30.024 50.521C29.9179 50.5212 29.8128 50.5002 29.715 50.4593L27.3839 49.4981C26.3529 49.035 27.2616 47.8484 27.4753 47.1619C27.6819 46.6611 27.7235 46.1076 27.5943 45.5815C27.4651 45.0555 27.1717 44.5842 26.7567 44.2361C26.2373 43.7962 25.7551 43.314 25.3152 42.7946C24.966 42.3792 24.4935 42.086 23.9663 41.9574C23.4391 41.8288 22.8847 41.8715 22.3834 42.0794L21.0966 42.6143C20.8992 42.6956 20.6777 42.6957 20.4802 42.6145C20.2828 42.5334 20.1253 42.3776 20.0421 42.181L19.074 39.8526C18.992 39.6551 18.9916 39.4333 19.073 39.2356C19.1544 39.0379 19.3108 38.8806 19.5081 38.7981L20.7881 38.2658C22.8566 37.419 22.1972 35.3757 22.3526 33.625C22.3983 33.0875 22.2707 32.5495 21.9886 32.0898C21.7065 31.6301 21.2846 31.2727 20.7847 31.0701L19.4953 30.5386C19.2978 30.4568 19.1409 30.3 19.0588 30.1027C18.9768 29.9053 18.9764 29.6835 19.0578 29.4859L20.0191 27.1548C20.4877 26.122 21.6637 27.0326 22.3553 27.2471C24.3895 28.1007 25.3981 26.2168 26.7217 25.086C27.1373 24.737 27.4308 24.2646 27.5596 23.7374C27.6884 23.2102 27.6457 22.6556 27.4378 22.1543L26.902 20.8666C26.8211 20.6693 26.8214 20.4481 26.9027 20.251C26.9839 20.0539 27.1397 19.8968 27.3361 19.8139L29.6654 18.8449C29.8629 18.7642 30.0841 18.7645 30.2813 18.8457C30.4785 18.927 30.6357 19.0826 30.719 19.279L31.2514 20.559C31.4545 21.0562 31.811 21.4756 32.269 21.7562C32.727 22.0368 33.2625 22.164 33.7978 22.1193C34.4945 22.0622 35.1948 22.0636 35.8913 22.1236C36.4291 22.1709 36.9679 22.044 37.4281 21.7617C37.8883 21.4793 38.2456 21.0565 38.447 20.5556L38.9785 19.2661C39.0188 19.1682 39.078 19.0791 39.1528 19.0041C39.2275 18.9291 39.3163 18.8695 39.4141 18.8289C39.5119 18.7883 39.6168 18.7673 39.7227 18.7673C39.8286 18.7672 39.9334 18.7881 40.0313 18.8286L42.3623 19.7899C43.3934 20.2526 42.4829 21.4405 42.2692 22.127C41.4169 24.1611 43.3003 25.1706 44.4312 26.4925C44.7802 26.9081 45.2526 27.2016 45.7798 27.3304C46.307 27.4592 46.8615 27.4165 47.3628 27.2086L48.6505 26.6729C48.8477 26.5912 49.0693 26.591 49.2666 26.6724C49.4639 26.7538 49.6209 26.91 49.7033 27.107L50.6723 29.4363C50.754 29.6336 50.7542 29.8553 50.6728 30.0527C50.5915 30.2502 50.4352 30.4074 50.2382 30.4899L48.9582 31.0222C48.4612 31.2258 48.0421 31.5824 47.7616 32.0402C47.481 32.4981 47.3536 33.0335 47.3979 33.5686C47.4545 34.2651 47.4531 34.9651 47.3936 35.6613C47.3472 36.1991 47.4744 36.7376 47.7566 37.1978C48.0389 37.6579 48.4612 38.0155 48.9616 38.2179L50.251 38.7494C50.4485 38.8312 50.6054 38.988 50.6874 39.1853C50.7694 39.3827 50.7698 39.6045 50.6885 39.8021Z" fill="black"></path><path d="M34.8721 23.8086C31.9994 23.8118 29.2454 24.9543 27.2141 26.9856C25.1829 29.0169 24.0403 31.7709 24.0371 34.6436C24.6324 49.0191 45.1145 49.0141 45.7079 34.6435C45.7045 31.7708 44.5618 29.0167 42.5303 26.9855C40.4989 24.9542 37.7448 23.8117 34.8721 23.8086ZM34.8721 43.7294C32.4633 43.7266 30.154 42.7684 28.4508 41.0651C26.7476 39.3617 25.7897 37.0523 25.7871 34.6436C26.2855 22.5906 43.461 22.595 43.9579 34.6436C43.9551 37.0525 42.997 39.3619 41.2937 41.0652C39.5903 42.7685 37.2809 43.7266 34.8721 43.7294Z" fill="black"></path></svg>