<svg xmlns="http://www.w3.org/2000/svg" width="56" height="56" viewBox="0 0 56 56" fill="none"><g clip-path="url(#clip0_1584_1086)"><path d="M54.1333 0H32.6667C31.6357 0 30.8 0.835735 30.8 1.86667V14.9333H29.8667C28.3203 14.9333 27.0667 16.1869 27.0667 17.7333V21.4667C27.0667 21.9821 26.6488 22.4 26.1333 22.4H25.2V1.86667C25.2 0.835735 24.3643 0 23.3333 0H1.86667C0.835735 0 0 0.835735 0 1.86667V54.1333C0 55.1643 0.835735 56 1.86667 56H23.3333C24.3643 56 25.2 55.1643 25.2 54.1333V24.2667H26.1333C27.6797 24.2667 28.9333 23.0131 28.9333 21.4667V17.7333C28.9333 17.2179 29.3512 16.8 29.8667 16.8H30.8V54.1333C30.8 55.1643 31.6357 56 32.6667 56H54.1333C55.1643 56 56 55.1643 56 54.1333V1.86667C56 0.835735 55.1643 0 54.1333 0ZM23.3333 54.1333H1.86667V1.86667H23.3333V22.4H19.4283C19.0342 21.2853 17.9823 20.5382 16.8 20.5333H8.4C6.8536 20.5333 5.6 21.7869 5.6 23.3333C5.6 24.8797 6.8536 26.1333 8.4 26.1333H16.8C17.9823 26.1284 19.0342 25.3814 19.4283 24.2667H23.3333V54.1333ZM17.7333 23.3333C17.7333 23.8488 17.3155 24.2667 16.8 24.2667H8.4C7.88453 24.2667 7.46667 23.8488 7.46667 23.3333C7.46667 22.8179 7.88453 22.4 8.4 22.4H16.8C17.3155 22.4 17.7333 22.8179 17.7333 23.3333ZM32.6667 54.1333V16.8H35.5899L34.6901 18.1487C34.404 18.5775 34.5198 19.1571 34.9487 19.4432C35.3775 19.7293 35.9571 19.6135 36.2432 19.1847L38.1099 16.3847C38.3191 16.071 38.3191 15.6623 38.1099 15.3487L36.2432 12.5487C35.9571 12.1198 35.3775 12.0041 34.9487 12.2901C34.5198 12.5762 34.404 13.1558 34.6901 13.5847L35.5899 14.9333H32.6667V1.86667H54.1333V54.1333H32.6667Z" fill="black"></path><path d="M5.59909 18.6677H19.5991C20.63 18.6677 21.4658 17.832 21.4658 16.801V5.60104C21.4658 4.57011 20.63 3.73438 19.5991 3.73438H5.59909C4.56816 3.73438 3.73242 4.57011 3.73242 5.60104V16.801C3.73242 17.832 4.56816 18.6677 5.59909 18.6677ZM5.59909 5.60104H19.5991V16.801H5.59909V5.60104Z" fill="black"></path><path d="M16.7996 46.666H8.39961C6.85321 46.666 5.59961 47.9196 5.59961 49.466C5.59961 51.0124 6.85321 52.266 8.39961 52.266H16.7996C18.346 52.266 19.5996 51.0124 19.5996 49.466C19.5996 47.9196 18.346 46.666 16.7996 46.666ZM16.7996 50.3993H8.39961C7.88414 50.3993 7.46628 49.9815 7.46628 49.466C7.46628 48.9506 7.88414 48.5327 8.39961 48.5327H16.7996C17.3151 48.5327 17.7329 48.9506 17.7329 49.466C17.7329 49.9815 17.3151 50.3993 16.7996 50.3993Z" fill="black"></path><path d="M5.59909 29.8672C4.56816 29.8672 3.73242 30.7029 3.73242 31.7339V42.9339C3.73242 43.9648 4.56816 44.8005 5.59909 44.8005H19.5991C20.63 44.8005 21.4658 43.9648 21.4658 42.9339V31.7339C21.4658 30.7029 20.63 29.8672 19.5991 29.8672H5.59909ZM5.59909 42.9339V31.7339H19.5991V42.9339H5.59909Z" fill="black"></path><path d="M35.4665 5.59909H39.1999C39.7153 5.59909 40.1332 5.18122 40.1332 4.66576C40.1332 4.15029 39.7153 3.73242 39.1999 3.73242H35.4665C34.9511 3.73242 34.5332 4.15029 34.5332 4.66576C34.5332 5.18122 34.9511 5.59909 35.4665 5.59909Z" fill="black"></path><path d="M51.3333 3.73242H42.9333C42.4179 3.73242 42 4.15029 42 4.66576C42 5.18122 42.4179 5.59909 42.9333 5.59909H51.3333C51.8488 5.59909 52.2667 5.18122 52.2667 4.66576C52.2667 4.15029 51.8488 3.73242 51.3333 3.73242Z" fill="black"></path><path d="M51.3332 7.4668H35.4665C34.9511 7.4668 34.5332 7.88466 34.5332 8.40013C34.5332 8.9156 34.9511 9.33346 35.4665 9.33346H51.3332C51.8487 9.33346 52.2665 8.9156 52.2665 8.40013C52.2665 7.88466 51.8487 7.4668 51.3332 7.4668Z" fill="black"></path><path d="M51.3328 11.1992H41.0661C40.5507 11.1992 40.1328 11.6171 40.1328 12.1326C40.1328 12.648 40.5507 13.0659 41.0661 13.0659H51.3328C51.8483 13.0659 52.2661 12.648 52.2661 12.1326C52.2661 11.6171 51.8483 11.1992 51.3328 11.1992Z" fill="black"></path><path d="M41.0661 16.8003H42.9328C43.4483 16.8003 43.8661 16.3824 43.8661 15.8669C43.8661 15.3515 43.4483 14.9336 42.9328 14.9336H41.0661C40.5507 14.9336 40.1328 15.3515 40.1328 15.8669C40.1328 16.3824 40.5507 16.8003 41.0661 16.8003Z" fill="black"></path><path d="M51.3324 14.9336H46.6658C46.1503 14.9336 45.7324 15.3515 45.7324 15.8669C45.7324 16.3824 46.1503 16.8003 46.6658 16.8003H51.3324C51.8479 16.8003 52.2658 16.3824 52.2658 15.8669C52.2658 15.3515 51.8479 14.9336 51.3324 14.9336Z" fill="black"></path><path d="M51.3328 18.666H41.0661C40.5507 18.666 40.1328 19.0839 40.1328 19.5993C40.1328 20.1148 40.5507 20.5327 41.0661 20.5327H51.3328C51.8483 20.5327 52.2661 20.1148 52.2661 19.5993C52.2661 19.0839 51.8483 18.666 51.3328 18.666Z" fill="black"></path><path d="M50.3999 22.4004H36.3999C35.3689 22.4004 34.5332 23.2361 34.5332 24.2671V37.3337C34.5332 38.3647 35.3689 39.2004 36.3999 39.2004H50.3999C51.4308 39.2004 52.2665 38.3647 52.2665 37.3337V24.2671C52.2665 23.2361 51.4308 22.4004 50.3999 22.4004ZM36.3999 37.3337V24.2671H50.3999V37.3337H36.3999Z" fill="black"></path><path d="M51.3332 41.0664H35.4665C34.9511 41.0664 34.5332 41.4843 34.5332 41.9997C34.5332 42.5152 34.9511 42.9331 35.4665 42.9331H51.3332C51.8487 42.9331 52.2665 42.5152 52.2665 41.9997C52.2665 41.4843 51.8487 41.0664 51.3332 41.0664Z" fill="black"></path><path d="M35.4665 46.6674H42.9332C43.4487 46.6674 43.8665 46.2496 43.8665 45.7341C43.8665 45.2186 43.4487 44.8008 42.9332 44.8008H35.4665C34.9511 44.8008 34.5332 45.2186 34.5332 45.7341C34.5332 46.2496 34.9511 46.6674 35.4665 46.6674Z" fill="black"></path><path d="M51.3324 44.8008H46.6658C46.1503 44.8008 45.7324 45.2186 45.7324 45.7341C45.7324 46.2496 46.1503 46.6674 46.6658 46.6674H51.3324C51.8479 46.6674 52.2658 46.2496 52.2658 45.7341C52.2658 45.2186 51.8479 44.8008 51.3324 44.8008Z" fill="black"></path><path d="M51.3332 48.5332H35.4665C34.9511 48.5332 34.5332 48.9511 34.5332 49.4665C34.5332 49.982 34.9511 50.3999 35.4665 50.3999H51.3332C51.8487 50.3999 52.2665 49.982 52.2665 49.4665C52.2665 48.9511 51.8487 48.5332 51.3332 48.5332Z" fill="black"></path></g><defs><clipPath id="clip0_1584_1086"><rect width="56" height="56" fill="white"></rect></clipPath></defs></svg>