<svg xmlns="http://www.w3.org/2000/svg" width="56" height="56" viewBox="0 0 56 56" fill="none"><path d="M48.4494 54.1339H13.4918C11.71 54.1339 10.2676 52.6914 10.2676 50.9096V5.09143C10.2676 3.30961 11.71 1.86719 13.4918 1.86719H40.8979C42.6797 1.86719 44.1221 3.30961 44.1221 5.09143V48.9581C44.1221 51.7581 46.413 54.049 49.213 54.049C52.013 54.049 54.3039 51.7581 54.3039 48.9581V20.7884C54.3039 19.0066 52.8615 17.5642 51.0797 17.5642H44.1221" stroke="black" stroke-width="1.69697" stroke-miterlimit="10" stroke-linecap="round" stroke-linejoin="round"></path><path d="M22.7387 6.78906L17.9023 11.7103L22.7387 16.5466" stroke="black" stroke-width="1.69697" stroke-miterlimit="10" stroke-linecap="round" stroke-linejoin="round"></path><path d="M36.2309 11.709L31.3945 16.5453" stroke="black" stroke-width="1.69697" stroke-miterlimit="10" stroke-linecap="round" stroke-linejoin="round"></path><path d="M31.3086 6.78906L36.2298 11.7103" stroke="black" stroke-width="1.69697" stroke-miterlimit="10" stroke-linecap="round" stroke-linejoin="round"></path><path d="M28.6782 5.26172L25.3691 18.0738" stroke="black" stroke-width="1.69697" stroke-miterlimit="10" stroke-linecap="round" stroke-linejoin="round"></path><path d="M26.1328 22.1465H40.5571" stroke="black" stroke-width="1.69697" stroke-miterlimit="10" stroke-linecap="round" stroke-linejoin="round"></path><path d="M19.7695 22.1465H22.9938" stroke="black" stroke-width="1.69697" stroke-miterlimit="10" stroke-linecap="round" stroke-linejoin="round"></path><path d="M14.1699 22.1465H16.4608" stroke="black" stroke-width="1.69697" stroke-miterlimit="10" stroke-linecap="round" stroke-linejoin="round"></path><path d="M33.1758 26.7285H40.5576" stroke="black" stroke-width="1.69697" stroke-miterlimit="10" stroke-linecap="round" stroke-linejoin="round"></path><path d="M19.7695 26.7285H29.8665" stroke="black" stroke-width="1.69697" stroke-miterlimit="10" stroke-linecap="round" stroke-linejoin="round"></path><path d="M14.1699 26.7285H16.4608" stroke="black" stroke-width="1.69697" stroke-miterlimit="10" stroke-linecap="round" stroke-linejoin="round"></path><path d="M27.7461 31.3945H40.6431" stroke="black" stroke-width="1.69697" stroke-miterlimit="10" stroke-linecap="round" stroke-linejoin="round"></path><path d="M19.7695 31.3945H24.3514" stroke="black" stroke-width="1.69697" stroke-miterlimit="10" stroke-linecap="round" stroke-linejoin="round"></path><path d="M14.1699 31.3945H16.4608" stroke="black" stroke-width="1.69697" stroke-miterlimit="10" stroke-linecap="round" stroke-linejoin="round"></path><path d="M35.5508 35.9766H40.6417" stroke="black" stroke-width="1.69697" stroke-miterlimit="10" stroke-linecap="round" stroke-linejoin="round"></path><path d="M19.7695 35.9766H32.3271" stroke="black" stroke-width="1.69697" stroke-miterlimit="10" stroke-linecap="round" stroke-linejoin="round"></path><path d="M14.1699 35.9766H16.4608" stroke="black" stroke-width="1.69697" stroke-miterlimit="10" stroke-linecap="round" stroke-linejoin="round"></path><path d="M27.1523 40.5586H40.5584" stroke="black" stroke-width="1.69697" stroke-miterlimit="10" stroke-linecap="round" stroke-linejoin="round"></path><path d="M19.7695 40.5586H23.9271" stroke="black" stroke-width="1.69697" stroke-miterlimit="10" stroke-linecap="round" stroke-linejoin="round"></path><path d="M14.1699 40.5586H16.4608" stroke="black" stroke-width="1.69697" stroke-miterlimit="10" stroke-linecap="round" stroke-linejoin="round"></path><path d="M34.2793 45.1406H40.5581" stroke="black" stroke-width="1.69697" stroke-miterlimit="10" stroke-linecap="round" stroke-linejoin="round"></path><path d="M19.7695 45.1406H31.3089" stroke="black" stroke-width="1.69697" stroke-miterlimit="10" stroke-linecap="round" stroke-linejoin="round"></path><path d="M14.1699 45.1406H16.4608" stroke="black" stroke-width="1.69697" stroke-miterlimit="10" stroke-linecap="round" stroke-linejoin="round"></path><path d="M34.2793 49.7227H40.5581" stroke="black" stroke-width="1.69697" stroke-miterlimit="10" stroke-linecap="round" stroke-linejoin="round"></path><path d="M19.7695 49.7227H31.3089" stroke="black" stroke-width="1.69697" stroke-miterlimit="10" stroke-linecap="round" stroke-linejoin="round"></path><path d="M14.1699 49.7227H16.4608" stroke="black" stroke-width="1.69697" stroke-miterlimit="10" stroke-linecap="round" stroke-linejoin="round"></path><path d="M6.87302 47.9397H1.69727V21.4669C3.39424 20.873 5.17605 20.873 6.87302 21.4669V47.9397Z" stroke="black" stroke-width="1.69697" stroke-miterlimit="10" stroke-linecap="round" stroke-linejoin="round"></path><path d="M4.32757 53.2849L1.69727 47.9395H6.87302L4.32757 53.2849Z" stroke="black" stroke-width="1.69697" stroke-miterlimit="10" stroke-linecap="round" stroke-linejoin="round"></path><path d="M1.69727 24.4375H6.87302" stroke="black" stroke-width="1.69697" stroke-miterlimit="10" stroke-linecap="round" stroke-linejoin="round"></path></svg>