<svg xmlns="http://www.w3.org/2000/svg" width="56" height="56" viewBox="0 0 56 56" fill="none"><path d="M50.4082 36.7499C50.3138 36.202 50.3808 35.6384 50.6012 35.128C50.8216 34.6176 51.1859 34.1823 51.6494 33.8754C51.9731 33.6757 52.2231 33.3763 52.362 33.0223C52.5008 32.6683 52.521 32.2787 52.4195 31.9122C52.318 31.5457 52.1003 31.2221 51.7991 30.99C51.4978 30.7578 51.1294 30.6298 50.7491 30.625H39.0341C38.3381 30.6258 37.6709 30.9026 37.1788 31.3947C36.6867 31.8868 36.4098 32.554 36.4091 33.25V36.7499C36.4109 37.9073 36.7406 39.0405 37.3598 40.0183C37.9791 40.9961 38.8627 41.7785 39.9082 42.275V43.7498C38.7483 43.7511 37.6363 44.2125 36.8161 45.0327C35.996 45.8528 35.5346 46.9648 35.5332 48.1247V49.8747C35.534 50.5707 35.8108 51.2379 36.3029 51.73C36.795 52.2221 37.4622 52.4989 38.1582 52.4997H49.5332C50.2292 52.4989 50.8964 52.2221 51.3885 51.73C51.8806 51.2379 52.1574 50.5707 52.1582 49.8747V48.1247C52.1277 45.2483 49.6667 43.4615 46.9082 43.7499V42.2753C47.954 41.779 48.8378 40.9966 49.4572 40.0187C50.0766 39.0408 50.4064 37.9074 50.4082 36.7499ZM38.1591 35.8749V33.2499C38.1593 33.0179 38.2516 32.7954 38.4156 32.6314C38.5797 32.4674 38.8021 32.3751 39.0341 32.3749H50.7492C50.1421 32.7429 49.635 33.2547 49.2725 33.8651C48.9101 34.4755 48.7035 35.1657 48.671 35.8749L38.1591 35.8749ZM38.2471 37.6249H48.5702C48.3672 38.6123 47.83 39.4996 47.0491 40.1371C46.2682 40.7747 45.2913 41.1235 44.2832 41.1248H42.5341C41.526 41.1235 40.5492 40.7747 39.7683 40.1371C38.9874 39.4996 38.4501 38.6123 38.2471 37.6249ZM47.7832 45.4997C48.4792 45.5005 49.1464 45.7773 49.6385 46.2694C50.1307 46.7615 50.4075 47.4288 50.4082 48.1247V49.8747C50.408 50.1067 50.3157 50.3291 50.1517 50.4932C49.9876 50.6572 49.7652 50.7495 49.5332 50.7497H38.1582C37.9262 50.7495 37.7038 50.6572 37.5398 50.4932C37.3757 50.3291 37.2835 50.1067 37.2832 49.8747V48.1247C37.284 47.4288 37.5608 46.7615 38.0529 46.2694C38.545 45.7773 39.2123 45.5005 39.9082 45.4997H40.395C40.7028 46.0256 41.1429 46.4618 41.6715 46.7648C42.2002 47.0679 42.7989 47.2274 43.4082 47.2274C44.0176 47.2274 44.6163 47.0679 45.1449 46.7648C45.6735 46.4617 46.1136 46.0255 46.4214 45.4996L47.7832 45.4997ZM45.1582 43.7497C45.153 44.2104 44.9663 44.6504 44.6386 44.9743C44.311 45.2982 43.8689 45.4799 43.4082 45.4799C42.9475 45.4798 42.5054 45.2982 42.1778 44.9743C41.8501 44.6504 41.6635 44.2103 41.6582 43.7497V42.8047C42.8222 42.9164 43.9942 42.9165 45.1582 42.8049V43.7497Z" fill="black"></path><path d="M6.125 25.3747H17.5C18.196 25.3739 18.8632 25.0971 19.3553 24.605C19.8474 24.1129 20.1242 23.4456 20.125 22.7497V20.9997C20.0945 18.1233 17.6335 16.3365 14.875 16.6248V15.1503C16.0196 14.5933 16.9675 13.7011 17.5927 12.5923C18.2178 11.4835 18.4907 10.2106 18.3749 8.943C18.3762 8.50173 18.4911 8.06822 18.7085 7.68421C18.9259 7.30021 19.2385 6.97863 19.6162 6.75043C19.9444 6.55359 20.199 6.25457 20.3411 5.89917C20.4831 5.54378 20.5047 5.15161 20.4025 4.78277C20.3004 4.41393 20.0801 4.08875 19.7755 3.85706C19.4709 3.62537 19.0987 3.49994 18.7159 3.5H7.00088C6.30491 3.50075 5.63767 3.77756 5.14555 4.26968C4.65343 4.7618 4.37663 5.42904 4.37587 6.125V9.62495C4.37774 10.7823 4.70738 11.9156 5.32665 12.8934C5.94591 13.8712 6.82946 14.6536 7.875 15.15V16.6248C6.71511 16.6262 5.6031 17.0875 4.78293 17.9077C3.96275 18.7278 3.50137 19.8398 3.5 20.9997V22.7497C3.50077 23.4457 3.77758 24.1129 4.2697 24.605C4.76182 25.0971 5.42905 25.3739 6.125 25.3747ZM6.12587 8.74993V6.12497C6.12611 5.89298 6.21837 5.67056 6.38241 5.50651C6.54646 5.34247 6.76888 5.25021 7.00088 5.24997H18.7159C18.1089 5.61798 17.6018 6.12976 17.2393 6.74016C16.8769 7.35055 16.6703 8.04078 16.6378 8.74992L6.12587 8.74993ZM6.21388 10.4999H16.537C16.334 11.4874 15.7967 12.3746 15.0158 13.0122C14.2349 13.6497 13.2581 13.9985 12.25 13.9999H10.5009C9.49277 13.9985 8.51593 13.6497 7.73502 13.0122C6.95411 12.3746 6.41689 11.4874 6.21388 10.4999ZM10.5009 15.7498C11.3762 15.7775 12.2524 15.7542 13.125 15.6799V16.6248C13.125 17.0889 12.9406 17.5341 12.6124 17.8622C12.2842 18.1904 11.8391 18.3748 11.375 18.3748C10.9109 18.3748 10.4658 18.1904 10.1376 17.8622C9.80937 17.5341 9.625 17.0889 9.625 16.6248V15.6798C9.9149 15.7241 10.2076 15.7475 10.5009 15.7498ZM5.25 20.9997C5.25731 20.6144 5.34684 20.2351 5.51258 19.8871C5.67832 19.5391 5.91645 19.2306 6.21105 18.9821C6.50566 18.7336 6.84993 18.5509 7.22084 18.4461C7.59176 18.3414 7.98076 18.3171 8.36182 18.3748C8.6651 18.9064 9.10359 19.3482 9.63279 19.6555C10.162 19.9629 10.7631 20.1248 11.375 20.1247C11.987 20.1247 12.5881 19.9629 13.1173 19.6555C13.6465 19.3482 14.0849 18.9063 14.3882 18.3748H15.75C16.446 18.3755 17.1132 18.6523 17.6053 19.1444C18.0974 19.6366 18.3742 20.3038 18.375 20.9997V22.7497C18.3748 22.9817 18.2825 23.2042 18.1185 23.3682C17.9544 23.5322 17.732 23.6245 17.5 23.6247H6.125C5.89301 23.6245 5.67058 23.5322 5.50654 23.3682C5.34249 23.2042 5.25023 22.9817 5.25 22.7497V20.9997Z" fill="black"></path><path d="M52.4996 14.8752C52.4962 11.8594 51.2966 8.96815 49.1641 6.8357C47.0317 4.70324 44.1404 3.50375 41.1246 3.50036C31.5057 3.4255 26.1766 15.0565 32.4816 22.281L30.006 24.7563C29.8864 24.8797 29.8055 25.0354 29.7733 25.2042C29.7411 25.373 29.759 25.5476 29.8247 25.7063C29.8905 25.8651 30.0012 26.0012 30.1434 26.0978C30.2855 26.1944 30.4528 26.2473 30.6246 26.25H41.1246C44.1404 26.2466 47.0317 25.0471 49.1641 22.9146C51.2966 20.7822 52.4962 17.8909 52.4996 14.8752ZM34.3143 21.6854C28.2765 15.7416 32.6376 5.19288 41.1248 5.2504C42.3887 5.25041 43.6403 5.49938 44.808 5.98308C45.9758 6.46678 47.0368 7.17575 47.9305 8.0695C48.8243 8.96325 49.5332 10.0243 50.0169 11.192C50.5006 12.3598 50.7495 13.6113 50.7495 14.8753C50.7495 16.1392 50.5005 17.3908 50.0168 18.5585C49.5331 19.7263 48.8242 20.7873 47.9304 21.681C47.0367 22.5748 45.9756 23.2837 44.8079 23.7674C43.6401 24.2511 42.3886 24.5 41.1246 24.5H32.7369L34.3143 22.9227C34.3956 22.8414 34.4601 22.745 34.504 22.6388C34.548 22.5327 34.5707 22.4189 34.5707 22.304C34.5707 22.1891 34.548 22.0753 34.504 21.9692C34.4601 21.863 34.3956 21.7666 34.3143 21.6854Z" fill="black"></path><path d="M14.8748 29.7504C-0.214078 30.3748 -0.212923 51.8765 14.8749 52.5H25.3748C25.5467 52.4973 25.7139 52.4444 25.8561 52.3478C25.9982 52.2512 26.109 52.1152 26.1747 51.9564C26.2405 51.7976 26.2584 51.6231 26.2262 51.4543C26.1939 51.2855 26.1131 51.1298 25.9935 51.0064L23.518 48.531C29.8235 41.3083 24.4915 29.6725 14.8748 29.7504ZM21.6851 49.1727L23.2625 50.7501H14.8748C2.10823 50.2227 2.1076 32.0278 14.8749 31.5003C16.7785 31.5016 18.639 32.0668 20.2215 33.1248C21.804 34.1828 23.0375 35.686 23.7662 37.4445C24.4949 39.2031 24.6861 41.1382 24.3157 43.0054C23.9453 44.8726 23.0299 46.5881 21.6851 47.9354C21.6039 48.0166 21.5394 48.113 21.4954 48.2192C21.4514 48.3253 21.4288 48.4391 21.4288 48.554C21.4288 48.6689 21.4514 48.7827 21.4954 48.8888C21.5394 48.995 21.6039 49.0915 21.6851 49.1727Z" fill="black"></path><path d="M17.5001 37.625H10.5001C10.27 37.6281 10.0505 37.7216 9.88889 37.8854C9.72731 38.0491 9.63672 38.2699 9.63672 38.5C9.63672 38.7301 9.72731 38.9509 9.88889 39.1146C10.0505 39.2784 10.27 39.3719 10.5001 39.375H17.5001C17.7301 39.3719 17.9497 39.2784 18.1112 39.1146C18.2728 38.9509 18.3634 38.7301 18.3634 38.5C18.3634 38.2699 18.2728 38.0491 18.1112 37.8854C17.9497 37.7216 17.7301 37.6281 17.5001 37.625Z" fill="black"></path><path d="M17.5007 42.875H10.5007C10.2706 42.8779 10.0508 42.9714 9.88912 43.1352C9.7274 43.2989 9.63672 43.5198 9.63672 43.75C9.63672 43.9802 9.7274 44.2011 9.88912 44.3648C10.0508 44.5286 10.2706 44.6221 10.5007 44.625H17.5007C17.7308 44.6219 17.9503 44.5284 18.1119 44.3646C18.2735 44.2009 18.3641 43.9801 18.3641 43.75C18.3641 43.5199 18.2735 43.2991 18.1119 43.1354C17.9503 42.9716 17.7308 42.8781 17.5007 42.875Z" fill="black"></path></svg>