<svg xmlns="http://www.w3.org/2000/svg" width="384" height="45" viewBox="0 0 384 45" fill="none"><path fill-rule="evenodd" clip-rule="evenodd" d="M311.429 34.8923C312.143 35.1301 312.714 35.5217 313.186 36.0392H314.286V41.6333H313.157C312.7 42.1228 312.143 42.5144 311.429 42.7521C309.786 43.3395 307.971 42.85 306.829 41.6333H305.714V36.0392H306.814C307.286 35.5217 307.857 35.1301 308.571 34.8923V29.0465H311.429V34.8923ZM310 40.2093C310.789 40.2093 311.429 39.5846 311.429 38.814C311.429 38.0433 310.789 37.4186 310 37.4186C309.211 37.4186 308.571 38.0433 308.571 38.814C308.571 39.5846 309.211 40.2093 310 40.2093Z" fill="#1E1E1E"></path><path fill-rule="evenodd" clip-rule="evenodd" d="M312.333 16.1008H315V13H305V16.1008H307.667V17.6511H305V26.9535H315V17.6511H312.333V16.1008ZM310 23.4651C310.789 23.4651 311.429 22.8404 311.429 22.0698C311.429 21.2991 310.789 20.6744 310 20.6744C309.211 20.6744 308.571 21.2991 308.571 22.0698C308.571 22.8404 309.211 23.4651 310 23.4651Z" fill="#1E1E1E"></path><path d="M22 0C16.1652 0 10.5695 2.31785 6.44365 6.44365C2.31785 10.5695 0 16.1652 0 22C0 27.8348 2.31785 33.4305 6.44365 37.5563C10.5695 41.6822 16.1652 44 22 44C24.8891 44 27.7499 43.431 30.419 42.3253C33.0882 41.2197 35.5135 39.5992 37.5563 37.5563C39.5992 35.5135 41.2197 33.0882 42.3253 30.419C43.431 27.7499 44 24.8891 44 22C44 19.1109 43.431 16.2501 42.3253 13.581C41.2197 10.9118 39.5992 8.48654 37.5563 6.44365C35.5135 4.40076 33.0882 2.78025 30.419 1.67465C27.7499 0.569047 24.8891 0 22 0ZM22 7.6766C29.9006 7.6766 36.3234 14.0994 36.3234 22C36.3234 29.9006 29.9006 36.3234 22 36.3234C14.0994 36.3234 7.6766 29.9006 7.6766 22C7.6766 14.0994 14.0994 7.6766 22 7.6766ZM22 9.3617C20.0886 9.3617 18.2781 9.78485 16.6554 10.5415C17.7364 13.6196 19.5864 17.5064 22 17.5064C24.4175 17.5064 26.2058 13.6072 27.313 10.5268C25.6983 9.77942 23.8989 9.3617 22 9.3617ZM31.2449 13.376C28.6504 15.3553 25.5209 18.318 26.2673 20.6151C27.0144 22.9147 31.2765 23.4103 34.5485 23.5113C34.6073 23.0157 34.6383 22.5116 34.6383 22C34.6383 18.6633 33.3506 15.6329 31.2449 13.376ZM12.7341 13.3987C10.6408 15.6531 9.3617 18.6744 9.3617 22C9.3617 22.5196 9.39353 23.0315 9.4542 23.5344C12.7152 23.4572 16.9792 22.8984 17.7247 20.6042C18.4712 18.3066 15.3206 15.4035 12.7341 13.3987ZM19.3049 17.4845C19.1352 17.4893 18.9709 17.5452 18.8335 17.6449C18.6528 17.7763 18.5316 17.9741 18.4967 18.1947C18.4617 18.4154 18.5159 18.6409 18.6472 18.8217C18.7785 19.0025 18.9763 19.1237 19.1969 19.1587C19.4176 19.1937 19.6432 19.1396 19.824 19.0083C19.9135 18.9433 19.9893 18.8612 20.0472 18.7669C20.105 18.6725 20.1437 18.5677 20.161 18.4584C20.1783 18.3491 20.1739 18.2375 20.1481 18.1299C20.1223 18.0223 20.0755 17.9208 20.0105 17.8313C19.9299 17.7205 19.8235 17.631 19.7006 17.5706C19.5776 17.5101 19.4418 17.4806 19.3049 17.4845ZM24.6951 17.4845C24.6753 17.4839 24.6554 17.484 24.6355 17.4849C24.5087 17.4902 24.3847 17.5241 24.2729 17.5841C24.161 17.6441 24.0642 17.7286 23.9896 17.8312C23.9245 17.9208 23.8777 18.0222 23.8519 18.1298C23.826 18.2374 23.8216 18.3491 23.839 18.4584C23.8563 18.5677 23.895 18.6725 23.9528 18.7669C24.0106 18.8612 24.0865 18.9433 24.176 19.0083C24.3568 19.1396 24.5824 19.1937 24.803 19.1587C25.0237 19.1238 25.2215 19.0026 25.3528 18.8218C25.4841 18.641 25.5383 18.4155 25.5033 18.1948C25.4684 17.9742 25.3472 17.7764 25.1665 17.645C25.0291 17.5452 24.8648 17.4893 24.6951 17.4845ZM22 19.0043C21.2055 19.0043 20.4435 19.3199 19.8817 19.8817C19.3199 20.4435 19.0043 21.2055 19.0043 22C19.0043 22.7945 19.3199 23.5565 19.8817 24.1183C20.4435 24.6801 21.2055 24.9957 22 24.9957C22.7945 24.9957 23.5565 24.6801 24.1183 24.1183C24.6801 23.5565 24.9957 22.7945 24.9957 22C24.9957 21.2055 24.6801 20.4435 24.1183 19.8817C23.5565 19.3199 22.7945 19.0043 22 19.0043ZM17.6658 22.5652C17.5815 22.5664 17.4978 22.5803 17.4175 22.6064C17.3123 22.6405 17.2148 22.6951 17.1307 22.767C17.0465 22.8388 16.9773 22.9265 16.9271 23.0251C16.8768 23.1237 16.8465 23.2312 16.8378 23.3416C16.8291 23.4519 16.8422 23.5628 16.8764 23.6681C16.9455 23.8806 17.0961 24.0569 17.2952 24.1584C17.4943 24.2598 17.7255 24.278 17.9381 24.209C18.0433 24.1748 18.1408 24.1202 18.2249 24.0484C18.3091 23.9765 18.3782 23.8888 18.4285 23.7902C18.4787 23.6917 18.5091 23.5842 18.5178 23.4738C18.5265 23.3635 18.5133 23.2526 18.4792 23.1474C18.4236 22.9762 18.3146 22.8273 18.1682 22.7225C18.0219 22.6177 17.8458 22.5626 17.6658 22.5652ZM26.3587 22.5659C26.1747 22.5579 25.9932 22.6104 25.8418 22.7154C25.6905 22.8204 25.5778 22.9721 25.5208 23.1473C25.4867 23.2525 25.4735 23.3635 25.4822 23.4738C25.4909 23.5841 25.5213 23.6916 25.5715 23.7902C25.6218 23.8887 25.6909 23.9765 25.7751 24.0483C25.8592 24.1201 25.9567 24.1747 26.0619 24.2089C26.2744 24.2779 26.5057 24.2597 26.7048 24.1583C26.9038 24.0569 27.0545 23.8806 27.1236 23.6681C27.1578 23.5628 27.1709 23.4519 27.1622 23.3416C27.1535 23.2312 27.1232 23.1237 27.0729 23.0251C27.0227 22.9265 26.9535 22.8388 26.8693 22.767C26.7852 22.6951 26.6877 22.6405 26.5825 22.6064C26.51 22.5828 26.4348 22.5692 26.3587 22.5659ZM17.7326 25.1603C15.7114 25.1701 13.0292 26.7361 10.9524 28.1493C12.7339 31.348 15.8636 33.6881 19.5786 34.4064C20.5138 31.2805 21.303 27.0464 19.3496 25.6273C18.8952 25.2971 18.3444 25.1573 17.7326 25.1603ZM26.2532 25.1622C25.6372 25.1622 25.0837 25.3041 24.6293 25.6342C22.6732 27.0554 23.5187 31.2612 24.4339 34.4041C28.1492 33.6818 31.278 31.3372 33.056 28.1343C30.9958 26.709 28.2876 25.1623 26.2532 25.1622ZM22 25.7054C21.7765 25.7054 21.5622 25.7941 21.4042 25.9521C21.2462 26.1102 21.1574 26.3245 21.1574 26.5479C21.1574 26.7714 21.2462 26.9857 21.4042 27.1437C21.5622 27.3017 21.7765 27.3905 22 27.3905C22.2235 27.3905 22.4378 27.3017 22.5958 27.1437C22.7538 26.9857 22.8426 26.7714 22.8426 26.5479C22.8426 26.3245 22.7538 26.1102 22.5958 25.9521C22.4378 25.7941 22.2235 25.7054 22 25.7054Z" fill="#1E1E1E"></path><path d="M66.5306 44.22C64.0906 44.22 61.9906 43.72 60.2306 42.72C58.5106 41.68 57.1906 40.18 56.2706 38.22C55.3506 36.22 54.8906 33.76 54.8906 30.84V13.26H62.9906V30C62.9906 32.44 63.4906 34.28 64.4906 35.52C65.5306 36.76 67.1106 37.38 69.2306 37.38C70.5906 37.38 71.7906 37.08 72.8306 36.48C73.8706 35.84 74.6906 34.94 75.2906 33.78C75.9306 32.58 76.2506 31.12 76.2506 29.4V13.26H84.2906V43.5H77.2106L76.5506 38.58C75.6706 40.3 74.3706 41.68 72.6506 42.72C70.9306 43.72 68.8906 44.22 66.5306 44.22Z" fill="#1E1E1E"></path><path d="M92.2233 43.5V13.26H99.4233L100.203 18.84C100.923 17.52 101.823 16.4 102.903 15.48C104.023 14.56 105.283 13.84 106.683 13.32C108.123 12.8 109.703 12.54 111.423 12.54V21.12H108.663C107.463 21.12 106.343 21.26 105.303 21.54C104.303 21.82 103.423 22.28 102.663 22.92C101.903 23.52 101.323 24.36 100.923 25.44C100.523 26.52 100.323 27.88 100.323 29.52V43.5H92.2233Z" fill="#1E1E1E"></path><path d="M149.495 44.22C145.495 44.22 142.015 43.34 139.055 41.58C136.095 39.78 133.795 37.28 132.155 34.08C130.515 30.84 129.695 27.08 129.695 22.8C129.695 18.48 130.535 14.68 132.215 11.4C133.895 8.08 136.315 5.48 139.475 3.6C142.635 1.72 146.415 0.780001 150.815 0.780001C155.735 0.780001 159.815 1.96 163.055 4.32C166.335 6.68 168.455 9.96 169.415 14.16H160.355C159.755 12.32 158.635 10.88 156.995 9.84C155.395 8.76 153.315 8.22 150.755 8.22C148.035 8.22 145.715 8.82 143.795 10.02C141.875 11.22 140.415 12.9 139.415 15.06C138.415 17.22 137.915 19.8 137.915 22.8C137.915 25.84 138.415 28.42 139.415 30.54C140.415 32.66 141.835 34.28 143.675 35.4C145.555 36.48 147.755 37.02 150.275 37.02C153.955 37.02 156.735 36.04 158.615 34.08C160.535 32.08 161.675 29.5 162.035 26.34H151.715V20.28H170.195V43.5H162.695L162.095 38.16C161.215 39.48 160.175 40.6 158.975 41.52C157.815 42.4 156.455 43.06 154.895 43.5C153.335 43.98 151.535 44.22 149.495 44.22Z" fill="#1E1E1E"></path><path d="M187.794 44.22C185.274 44.22 183.194 43.82 181.554 43.02C179.914 42.18 178.694 41.08 177.894 39.72C177.134 38.32 176.754 36.78 176.754 35.1C176.754 33.26 177.214 31.64 178.134 30.24C179.094 28.84 180.514 27.74 182.394 26.94C184.314 26.14 186.714 25.74 189.594 25.74H197.094C197.094 24.26 196.894 23.04 196.494 22.08C196.094 21.08 195.474 20.34 194.634 19.86C193.794 19.38 192.674 19.14 191.274 19.14C189.754 19.14 188.454 19.48 187.374 20.16C186.334 20.8 185.694 21.8 185.454 23.16H177.594C177.794 21 178.494 19.14 179.694 17.58C180.934 15.98 182.554 14.74 184.554 13.86C186.594 12.98 188.854 12.54 191.334 12.54C194.174 12.54 196.634 13.02 198.714 13.98C200.794 14.94 202.394 16.32 203.514 18.12C204.634 19.92 205.194 22.14 205.194 24.78V43.5H198.354L197.454 38.88C197.014 39.68 196.494 40.4 195.894 41.04C195.294 41.68 194.594 42.24 193.794 42.72C192.994 43.2 192.094 43.56 191.094 43.8C190.094 44.08 188.994 44.22 187.794 44.22ZM189.714 37.98C190.754 37.98 191.674 37.8 192.474 37.44C193.314 37.04 194.034 36.52 194.634 35.88C195.234 35.2 195.694 34.44 196.014 33.6C196.374 32.72 196.614 31.78 196.734 30.78V30.72H190.554C189.314 30.72 188.294 30.88 187.494 31.2C186.734 31.48 186.174 31.9 185.814 32.46C185.454 33.02 185.274 33.66 185.274 34.38C185.274 35.18 185.454 35.84 185.814 36.36C186.174 36.88 186.694 37.28 187.374 37.56C188.054 37.84 188.834 37.98 189.714 37.98Z" fill="#1E1E1E"></path><path d="M212.751 43.5V0.3H220.851V43.5H212.751Z" fill="#1E1E1E"></path><path d="M228.747 43.5V0.3H236.847V43.5H228.747Z" fill="#1E1E1E"></path><path d="M259.263 44.22C256.223 44.22 253.523 43.58 251.163 42.3C248.843 40.98 247.023 39.16 245.703 36.84C244.423 34.48 243.783 31.76 243.783 28.68C243.783 25.52 244.423 22.74 245.703 20.34C247.023 17.9 248.843 16 251.163 14.64C253.483 13.24 256.183 12.54 259.263 12.54C262.263 12.54 264.883 13.2 267.123 14.52C269.363 15.84 271.103 17.62 272.343 19.86C273.583 22.1 274.203 24.64 274.203 27.48C274.203 27.88 274.203 28.34 274.203 28.86C274.203 29.34 274.163 29.84 274.083 30.36H249.543V25.44H266.043C265.923 23.48 265.223 21.94 263.943 20.82C262.703 19.7 261.143 19.14 259.263 19.14C257.903 19.14 256.643 19.46 255.483 20.1C254.323 20.7 253.403 21.64 252.723 22.92C252.083 24.2 251.763 25.82 251.763 27.78V29.52C251.763 31.16 252.063 32.6 252.663 33.84C253.303 35.04 254.183 35.98 255.303 36.66C256.423 37.3 257.723 37.62 259.203 37.62C260.683 37.62 261.903 37.3 262.863 36.66C263.863 36.02 264.603 35.2 265.083 34.2H273.363C272.803 36.08 271.863 37.78 270.543 39.3C269.223 40.82 267.603 42.02 265.683 42.9C263.763 43.78 261.623 44.22 259.263 44.22Z" fill="#1E1E1E"></path><path d="M280.837 43.5V13.26H288.037L288.817 18.84C289.537 17.52 290.437 16.4 291.517 15.48C292.637 14.56 293.897 13.84 295.297 13.32C296.737 12.8 298.317 12.54 300.037 12.54V21.12H297.277C296.077 21.12 294.957 21.26 293.917 21.54C292.917 21.82 292.037 22.28 291.277 22.92C290.517 23.52 289.937 24.36 289.537 25.44C289.137 26.52 288.937 27.88 288.937 29.52V43.5H280.837Z" fill="#1E1E1E"></path><path d="M309.647 9.12C308.207 9.12 307.007 8.7 306.047 7.86C305.127 6.98 304.667 5.88 304.667 4.56C304.667 3.24 305.127 2.16 306.047 1.32C307.007 0.44 308.207 0 309.647 0C311.127 0 312.327 0.44 313.247 1.32C314.207 2.16 314.687 3.24 314.687 4.56C314.687 5.88 314.207 6.98 313.247 7.86C312.327 8.7 311.127 9.12 309.647 9.12Z" fill="#1E1E1E"></path><path d="M336.372 44.22C333.332 44.22 330.632 43.58 328.272 42.3C325.952 40.98 324.132 39.16 322.812 36.84C321.532 34.48 320.892 31.76 320.892 28.68C320.892 25.52 321.532 22.74 322.812 20.34C324.132 17.9 325.952 16 328.272 14.64C330.592 13.24 333.292 12.54 336.372 12.54C339.372 12.54 341.992 13.2 344.232 14.52C346.472 15.84 348.212 17.62 349.452 19.86C350.692 22.1 351.312 24.64 351.312 27.48C351.312 27.88 351.312 28.34 351.312 28.86C351.312 29.34 351.272 29.84 351.192 30.36H326.652V25.44H343.152C343.032 23.48 342.332 21.94 341.052 20.82C339.812 19.7 338.252 19.14 336.372 19.14C335.012 19.14 333.752 19.46 332.592 20.1C331.432 20.7 330.512 21.64 329.832 22.92C329.192 24.2 328.872 25.82 328.872 27.78V29.52C328.872 31.16 329.172 32.6 329.772 33.84C330.412 35.04 331.292 35.98 332.412 36.66C333.532 37.3 334.832 37.62 336.312 37.62C337.792 37.62 339.012 37.3 339.972 36.66C340.972 36.02 341.712 35.2 342.192 34.2H350.472C349.912 36.08 348.972 37.78 347.652 39.3C346.332 40.82 344.712 42.02 342.792 42.9C340.872 43.78 338.732 44.22 336.372 44.22Z" fill="#1E1E1E"></path><path d="M370.306 44.22C367.546 44.22 365.146 43.78 363.106 42.9C361.066 42.02 359.466 40.8 358.306 39.24C357.146 37.68 356.486 35.92 356.326 33.96H364.366C364.566 34.72 364.906 35.42 365.386 36.06C365.866 36.66 366.506 37.14 367.306 37.5C368.106 37.86 369.066 38.04 370.186 38.04C371.266 38.04 372.146 37.9 372.826 37.62C373.506 37.3 374.006 36.88 374.326 36.36C374.686 35.84 374.866 35.3 374.866 34.74C374.866 33.9 374.626 33.26 374.146 32.82C373.666 32.34 372.966 31.96 372.046 31.68C371.126 31.4 370.006 31.12 368.686 30.84C367.246 30.56 365.826 30.22 364.426 29.82C363.066 29.38 361.846 28.84 360.766 28.2C359.686 27.56 358.826 26.74 358.186 25.74C357.546 24.74 357.226 23.5 357.226 22.02C357.226 20.22 357.706 18.62 358.666 17.22C359.626 15.78 361.026 14.64 362.866 13.8C364.706 12.96 366.926 12.54 369.526 12.54C373.166 12.54 376.046 13.36 378.166 15C380.286 16.64 381.546 18.9 381.946 21.78H374.326C374.086 20.86 373.546 20.14 372.706 19.62C371.906 19.06 370.826 18.78 369.466 18.78C368.026 18.78 366.926 19.04 366.166 19.56C365.406 20.08 365.026 20.76 365.026 21.6C365.026 22.16 365.266 22.66 365.746 23.1C366.266 23.54 366.986 23.92 367.906 24.24C368.826 24.52 369.946 24.8 371.266 25.08C373.586 25.56 375.626 26.12 377.386 26.76C379.146 27.36 380.526 28.24 381.526 29.4C382.526 30.52 383.026 32.16 383.026 34.32C383.026 36.24 382.506 37.96 381.466 39.48C380.426 40.96 378.946 42.12 377.026 42.96C375.146 43.8 372.906 44.22 370.306 44.22Z" fill="#1E1E1E"></path></svg>